<?xml version="1.0" encoding="UTF-8" standalone="no"?><!DOCTYPE svg PUBLIC "-//W3C//DTD SVG 1.1//EN"
        "http://www.w3.org/Graphics/SVG/1.1/DTD/svg11.dtd">
<svg width="530" height="100%" viewBox="0 0 635 130" version="1.1" xmlns="http://www.w3.org/2000/svg"
     xmlns:xlink="http://www.w3.org/1999/xlink" xml:space="preserve" xmlns:serif="http://www.serif.com/"
     style="fill-rule:evenodd;clip-rule:evenodd;stroke-linejoin:round;stroke-miterlimit:2;"><g><path d="M154.539,80.651c1.922,0 3.254,-1.381 3.254,-3.106l0,-24.951c0,-2.416 -1.232,-3.699 -3.106,-4.192l0,-1.085c1.874,0 3.698,0.197 5.571,0.197c1.874,0 3.748,-0.197 5.622,-0.197l0,1.085c-2.022,0.543 -2.663,1.726 -2.663,4.339c0,1.48 -0.148,4.635 -0.148,9.073l0,17.062c1.085,0.197 2.022,0.296 5.227,0.296c8.481,0 10.01,-1.529 11.243,-4.685l1.775,0.888l-2.121,6.952c-1.577,-0.591 -3.155,-0.789 -4.733,-0.789l-16.174,0c-1.232,0 -2.515,0.198 -3.747,0.198l0,-1.085Z" style="fill:#11377d;fill-rule:nonzero;"/><path
        d="M185.787,54.16c1.421,0 2.841,0.157 4.3,0.157c1.421,0 2.88,-0.157 4.301,-0.157l0,0.866c-1.776,0.238 -2.21,1.421 -2.21,3.946c0,3.748 -0.039,7.496 -0.039,11.245c0,5.285 2.446,9.034 8.324,9.034c3.196,0 7.259,-1.855 7.259,-6.314l0,-4.654c0,-4.655 -0.355,-9.311 -0.355,-11.283c0,-1.105 -1.065,-1.855 -2.012,-1.974l0,-0.866c1.42,0 2.84,0.157 4.261,0.157c1.42,0 2.88,-0.157 4.3,-0.157l0,0.866c-1.302,0.04 -1.854,1.579 -1.854,2.92c0,1.5 -0.119,5.604 -0.119,10.811l0,8.599c0,2.21 0.434,3.354 2.17,3.472l0,0.868c-1.104,0 -2.248,-0.158 -3.353,-0.158c-1.105,0 -2.21,0.158 -3.314,0.158c0.079,-1.341 0.198,-2.564 0.276,-3.748c-2.88,2.684 -5.326,4.221 -9.349,4.221c-5.84,0 -10.456,-3.353 -10.456,-9.27l0,-6.588c0,-3.078 -0.197,-5.8 -0.197,-8.246c0,-1.539 -0.276,-2.801 -1.933,-3.039l0,-0.866Z"
        style="fill:#11377d;fill-rule:nonzero;"/><path
        d="M222.597,80.828c1.538,-0.394 2.445,-1.577 2.445,-3.787l0.119,-23.356l1.657,0l19.291,21.226l0,-13.571c0,-4.893 -1.065,-6.035 -2.959,-6.314l0,-0.866c1.303,0 2.604,0.157 3.906,0.157c1.302,0 2.644,-0.157 3.945,-0.157l0,0.866c-1.735,0.317 -2.604,1.697 -2.604,4.894l-0.118,22.249l-1.341,0l-19.607,-21.342l0.157,15.03c0.04,3.077 0.987,4.498 2.881,4.971l0,0.868c-1.302,0 -2.604,-0.158 -3.906,-0.158c-1.302,0 -2.565,0.158 -3.866,0.158l0,-0.868Z"
        style="fill:#11377d;fill-rule:nonzero;"/><path
        d="M265.519,79.803c1.853,0.236 3.392,0.315 4.891,0.315c7.535,0 11.322,-4.616 11.322,-12.19c0,-7.141 -4.97,-12.191 -11.953,-12.191c-1.262,0 -2.486,0.079 -4.064,0.158c-0.039,3.471 -0.196,6.628 -0.196,9.942l0,13.966Zm-6.273,1.025c1.617,-0.394 2.051,-1.105 2.051,-2.801l0,-11.48c0,-3.472 -0.395,-6.549 -0.395,-8.482c0,-1.657 -0.591,-2.801 -2.051,-3.195l0,-0.71c1.853,0 3.669,0.157 5.523,0.157c1.815,0 3.669,-0.157 5.523,-0.157c10.77,0 17.319,4.733 17.319,13.61c0,9.035 -5.129,13.926 -16.214,13.926c-1.973,0 -3.945,-0.158 -5.878,-0.158c-1.973,0 -3.907,0.158 -5.878,0.158l0,-0.868Z"
        style="fill:#11377d;fill-rule:nonzero;"/><path
        d="M311.517,47.306c1.776,0 3.551,0.198 5.376,0.198c1.776,0 2.87,-0.198 4.646,-0.198l0,1.086c-2.22,0.296 -2.763,1.776 -2.763,4.932c0,4.686 -0.048,9.372 -0.048,14.059c0,6.609 3.058,11.296 10.408,11.296c3.994,0 9.075,-2.32 9.075,-7.893l0,-5.82c0,-5.821 -0.444,-11.642 -0.444,-14.108c0,-1.381 -1.332,-2.318 -2.515,-2.466l0,-1.086c1.775,0 3.28,0.198 5.058,0.198c1.775,0 3.107,-0.198 4.881,-0.198l0,1.086c-1.627,0.049 -2.317,1.973 -2.317,3.65c0,1.874 -0.148,7.004 -0.148,13.514l0,10.754c0,2.762 0.543,4.193 2.712,4.341l0,1.085c-1.38,0 -2.811,-0.198 -4.193,-0.198c-1.381,0 -1.998,0.198 -3.379,0.198c0.098,-1.678 0.246,-3.206 0.345,-4.685c-3.601,3.353 -6.421,5.277 -11.452,5.277c-5.986,0 -12.578,-4.193 -12.578,-11.593l0,-8.236c0,-3.848 -0.247,-7.251 -0.247,-10.31c0,-1.924 -0.346,-3.501 -2.417,-3.797l0,-1.086Z"
        style="fill:#11377d;fill-rule:nonzero;"/><path
        d="M356.019,80.828c1.539,-0.394 2.446,-1.577 2.446,-3.787l0.118,-23.356l1.657,0l19.292,21.226l0,-13.571c0,-4.893 -1.064,-6.035 -2.959,-6.314l0,-0.866c1.303,0 2.606,0.157 3.905,0.157c1.302,0 2.644,-0.157 3.947,-0.157l0,0.866c-1.737,0.317 -2.606,1.697 -2.606,4.894l-0.117,22.249l-1.342,0l-19.607,-21.342l0.158,15.03c0.038,3.077 0.986,4.498 2.88,4.971l0,0.868c-1.302,0 -2.604,-0.158 -3.906,-0.158c-1.302,0 -2.564,0.158 -3.866,0.158l0,-0.868Z"
        style="fill:#11377d;fill-rule:nonzero;"/><path
        d="M401.308,55.026c-1.459,0.238 -1.618,1.264 -1.618,2.645c0,3.826 -0.158,8.481 -0.158,12.664l0,7.653c0,1.302 0.434,2.801 1.934,2.84l0,0.868c-1.342,0 -2.723,-0.158 -4.065,-0.158c-1.38,0 -2.722,0.158 -4.062,0.158l0,-0.868c1.262,-0.039 1.973,-1.144 1.973,-2.84l0,-5.682c0,-4.733 -0.354,-11.676 -0.354,-14.162c0,-1.618 -0.158,-2.919 -1.777,-3.118l0,-0.866c1.341,0 2.683,0.157 4.062,0.157c1.342,0 2.723,-0.157 4.065,-0.157l0,0.866Z"
        style="fill:#11377d;fill-rule:nonzero;"/><path
        d="M420.993,82.169l-10.889,-23.947c-0.433,-0.986 -1.302,-2.603 -2.841,-3.196l0,-0.866c1.5,0 3,0.157 4.498,0.157c1.461,0 2.959,-0.157 4.459,-0.157l0,0.866c-0.75,0.159 -1.461,0.514 -1.461,1.421c0,0.355 0.119,1.026 0.711,2.446l7.218,17.241l6.155,-16.096c0.433,-1.106 0.553,-2.013 0.553,-2.604c0,-1.539 -0.512,-2.17 -2.051,-2.408l0,-0.866c1.34,0 2.683,0.157 4.023,0.157c1.342,0 2.682,-0.157 4.024,-0.157l0,0.866c-1.618,0.238 -2.524,1.579 -3.315,3.551l-9.348,23.592l-1.736,0Z"
        style="fill:#11377d;fill-rule:nonzero;"/><path
        d="M440.8,80.671c1.539,-0.158 2.287,-1.105 2.287,-2.407l0,-6.667c0,-5.365 -0.315,-11.007 -0.315,-14.517c0,-0.987 -0.751,-1.658 -1.972,-1.895l0,-0.868l15.582,0c1.066,0 2.406,-0.394 3.117,-0.632c0,1.027 -0.158,1.974 -0.158,2.96c0,0.986 0.158,1.932 0.158,2.919l-1.5,0c-0.67,-1.893 -1.617,-3.352 -3.785,-3.352l-6.906,0l0,10.493l5.959,0c2.287,0 3.037,-0.197 3.982,-2.131l1.264,0c0,1.145 -0.159,2.288 -0.159,3.433c0,1.183 0.159,2.328 0.159,3.471l-1.34,0c-0.869,-2.721 -1.619,-2.881 -3.906,-2.881l-5.959,0l0,11.048l6.707,0c2.92,0 3.984,-0.473 5.759,-2.959l1.225,0.631l-1.383,4.852c-1.222,-0.473 -2.443,-0.631 -3.707,-0.631l-15.109,0l0,-0.867Z"
        style="fill:#11377d;fill-rule:nonzero;"/><path
        d="M475.677,68.519c0.592,0.04 1.066,0.12 1.541,0.12c3.627,0 6.744,-2.447 6.744,-6.195c0,-3.63 -1.656,-6.864 -5.957,-6.864c-1.027,0 -2.131,0.118 -2.131,1.104l-0.197,11.835Zm-6.194,12.309c1.342,-0.315 1.973,-0.946 1.973,-2.287l0,-10.14c0,-3.392 -0.197,-6.785 -0.197,-10.138c0,-1.855 -0.197,-2.841 -2.209,-3.237l0,-0.866c1.262,0 2.564,0.157 3.826,0.157c1.184,0 2.369,-0.157 5.326,-0.157c7.102,0 10.572,3.55 10.572,7.812c0,3.984 -3.628,6.547 -7.138,7.415l7.967,9.231c0.591,0.711 1.933,2.014 2.998,2.21l0,0.868c-1.301,0 -2.643,-0.158 -3.946,-0.158c-1.301,0 -2.603,0.158 -3.902,0.158l0,-0.868c0.275,-0.039 0.393,-0.196 0.434,-0.473c0,-0.355 -0.122,-0.71 -0.594,-1.262l-6.549,-7.655c-0.592,-0.67 -1.42,-1.696 -2.367,-1.696l0,7.812c0,1.657 0.197,2.839 2.211,3.274l0,0.868c-1.422,0 -2.801,-0.158 -4.221,-0.158c-1.422,0 -2.764,0.158 -4.184,0.158l0,-0.868Z"
        style="fill:#11377d;fill-rule:nonzero;"/><path
        d="M498.401,76.332l1.498,0c1.067,2.997 3.512,4.181 6.469,4.181c2.686,0 5.129,-2.17 5.129,-4.932c0,-8.324 -13.451,-3.195 -13.451,-13.886c0,-5.09 4.459,-8.01 9.113,-8.01c2.565,0 5.721,0.948 7.023,1.816l0.393,4.221l-1.42,0c-0.631,-2.604 -3.392,-4.379 -5.957,-4.379c-2.959,0 -5.326,1.972 -5.326,5.01c0,6.944 13.451,2.919 13.451,13.216c0,5.247 -4.22,8.6 -9.23,8.6c-2.643,0 -5.324,-0.315 -7.692,-1.537l0,-4.3Z"
        style="fill:#11377d;fill-rule:nonzero;"/><path
        d="M532.644,55.026c-1.459,0.238 -1.62,1.264 -1.62,2.645c0,3.826 -0.156,8.481 -0.156,12.664l0,7.653c0,1.302 0.434,2.801 1.932,2.84l0,0.868c-1.34,0 -2.721,-0.158 -4.063,-0.158c-1.381,0 -2.722,0.158 -4.062,0.158l0,-0.868c1.262,-0.039 1.972,-1.144 1.972,-2.84l0,-5.682c0,-4.733 -0.357,-11.676 -0.357,-14.162c0,-1.618 -0.158,-2.919 -1.773,-3.118l0,-0.866c1.339,0 2.681,0.157 4.062,0.157c1.342,0 2.723,-0.157 4.065,-0.157l0,0.866Z"
        style="fill:#11377d;fill-rule:nonzero;"/><path
        d="M564.046,59.249l-1.502,0c-0.393,-2.328 -1.578,-3.037 -3.826,-3.037l-4.971,0c0,3.391 -0.197,7.731 -0.197,12.466l0,8.402c0,2.446 0.75,3.195 2.486,3.748l0,0.868c-1.539,0 -3.039,-0.158 -4.537,-0.158c-1.5,0 -2.998,0.158 -4.537,0.158l0,-0.868c1.814,-0.591 2.367,-1.459 2.367,-3.748l0,-6.193c0,-5.681 -0.316,-11.284 -0.394,-14.675l-5.327,0c-2.248,0 -3.431,0.709 -3.826,3.037l-1.5,0l0,-5.564c1.5,0.396 3.039,0.632 4.578,0.632l17.436,0c1.105,0 2.842,-0.236 3.75,-0.632l0,5.564Z"
        style="fill:#11377d;fill-rule:nonzero;"/><path
        d="M574.89,80.828c1.894,-0.315 2.447,-1.223 2.447,-3.155l0,-7.576l-7.377,-12.269c-0.752,-1.223 -1.145,-2.051 -2.367,-2.802l0,-0.866c1.34,0 2.72,0.157 4.062,0.157c1.342,0 2.723,-0.157 4.063,-0.157l0,0.866c-0.748,0.159 -1.262,0.554 -1.262,1.382c0,0.394 0.238,1.538 0.789,2.485l5.012,8.837l4.931,-8.481c0.749,-1.303 0.868,-2.249 0.868,-2.959c0,-0.868 -0.868,-1.224 -1.659,-1.264l0,-0.866c1.184,0 2.37,0.157 3.59,0.157c1.186,0 2.367,-0.157 3.551,-0.157l0,0.866c-1.303,0.475 -2.012,1.579 -3.076,3.276l-6.904,11.244l0,8.127c0,1.932 0.55,2.84 2.287,3.155l0,0.868c-1.498,0 -2.998,-0.158 -4.455,-0.158c-1.502,0 -3,0.158 -4.5,0.158l0,-0.868Z"
        style="fill:#11377d;fill-rule:nonzero;"/><path
        d="M54.204,104.053l0,5.192c0,0.263 1.18,0.716 1.18,0.716l-3.721,0c0,0 1.112,-0.453 1.112,-0.681l0,-4.377l-1.159,0.195l-0.017,-0.209l2.605,-0.836Z"
        style="fill:#93560e;fill-rule:nonzero;"/><path
        d="M76.153,106.84c-0.431,0 -0.73,0.174 -0.943,0.3c-0.026,0.121 -0.075,0.415 -0.075,0.886c0,0.642 0.085,1.718 0.993,1.718c0.894,0 0.906,-0.838 0.906,-1.492c0,-0.586 -0.035,-1.412 -0.881,-1.412Zm1.913,-2.672c-1.671,0.368 -2.523,1.43 -2.761,2.551c0.417,-0.221 0.787,-0.32 1.226,-0.32c1.217,0 2.029,0.707 2.029,1.744c0,1.137 -0.978,1.94 -2.372,1.94c-1.538,0 -2.579,-0.965 -2.579,-2.407c0,-1.801 1.762,-3.619 4.428,-3.619l0.029,0.111Z"
        style="fill:#93560e;fill-rule:nonzero;"/><path
        d="M68.324,106.84c-0.431,0 -0.731,0.174 -0.946,0.3c-0.021,0.121 -0.07,0.415 -0.07,0.886c0,0.642 0.083,1.718 0.992,1.718c0.894,0 0.908,-0.838 0.908,-1.492c0,-0.586 -0.038,-1.412 -0.884,-1.412Zm1.913,-2.672c-1.667,0.368 -2.524,1.43 -2.763,2.551c0.419,-0.221 0.788,-0.32 1.232,-0.32c1.216,0 2.027,0.707 2.027,1.744c0,1.137 -0.978,1.94 -2.374,1.94c-1.539,0 -2.577,-0.965 -2.577,-2.407c0,-1.801 1.762,-3.619 4.425,-3.619l0.03,0.111Z"
        style="fill:#93560e;fill-rule:nonzero;"/><path
        d="M60.439,106.84c-0.429,0 -0.726,0.174 -0.942,0.3c-0.022,0.121 -0.069,0.415 -0.069,0.886c0,0.642 0.082,1.718 0.987,1.718c0.896,0 0.908,-0.838 0.908,-1.492c0,-0.586 -0.036,-1.412 -0.884,-1.412Zm1.916,-2.672c-1.668,0.368 -2.523,1.43 -2.761,2.551c0.416,-0.221 0.786,-0.32 1.227,-0.32c1.218,0 2.027,0.707 2.027,1.744c0,1.137 -0.975,1.94 -2.372,1.94c-1.54,0 -2.575,-0.965 -2.575,-2.407c0,-1.801 1.76,-3.619 4.426,-3.619l0.028,0.111Z"
        style="fill:#93560e;fill-rule:nonzero;"/><path
        d="M11.001,54.39c0.553,0.178 1.338,0.572 1.855,0.922c-0.081,0.162 -0.138,0.372 -0.178,0.619c-0.084,0.504 0.021,1.074 -0.11,1.879c-0.362,2.202 -2.165,3.656 -4.11,3.337c-1.972,-0.322 -3.22,-2.388 -2.846,-4.687c0.185,-1.117 0.744,-1.774 0.779,-1.989c0.016,-0.086 -0.028,-0.5 -0.028,-0.5l1.896,0.21c0,0 -1.916,1.253 -2.085,2.284c-0.251,1.534 0.734,2.786 2.43,3.064c1.729,0.284 3.252,-0.68 3.503,-2.213c0.162,-0.987 -1.106,-2.926 -1.106,-2.926Z"
        style="fill:#93560e;fill-rule:nonzero;"/><path
        d="M28.679,26.344l-4.045,4.2c0,0 0.269,-1.253 -0.114,-1.623l-3.134,-3.017c-0.46,-0.444 -1.608,-0.07 -1.608,-0.07l2.556,-2.654c0,0 -0.291,1.274 0.078,1.629l3.227,3.109c0.29,0.278 0.441,0.261 0.736,-0.047l0.96,-0.994c0.505,-0.527 0.529,-2.417 0.529,-2.417l0.815,1.884Z"
        style="fill:#93560e;fill-rule:nonzero;"/><path
        d="M25.386,20.234l2.689,-2.178c0,0 -0.367,1.165 -0.007,1.604l2.707,3.348c0.335,0.414 1.55,0.312 1.55,0.312l-2.689,2.175c0,0 0.299,-1.139 -0.002,-1.507l-2.734,-3.383c-0.356,-0.442 -1.514,-0.371 -1.514,-0.371Z"
        style="fill:#93560e;fill-rule:nonzero;"/><path
        d="M34.425,20.244c0.347,0.563 1.6,0.551 1.6,0.551l-2.243,1.373c0,0 0.413,-1.032 0.182,-1.415l-2.609,-4.253c-0.288,-0.016 -1.085,-0.114 -1.085,-0.114l1.909,-1.167l6.203,1.631l-1.719,-2.799c-0.406,-0.671 -1.677,-0.555 -1.677,-0.555l2.395,-1.468c0,0 -0.56,1.008 -0.342,1.36l3.037,4.96l-0.511,0.313l-7.284,-1.924l2.144,3.507Z"
        style="fill:#93560e;fill-rule:nonzero;"/><path
        d="M73.95,10.996c0,0 1.054,1.887 1.895,2.063c0.702,0.151 1.328,-0.183 1.455,-0.779c0.335,-1.586 -3.091,-2.256 -2.645,-4.362c0.217,-1.021 1.262,-1.546 2.528,-1.278c0.817,0.177 1.398,0.584 1.559,0.618c0.074,0.016 0.144,0.009 0.257,-0.065l0.226,0.047l-0.165,1.765c0,0 -1.038,-1.707 -1.857,-1.882c-0.596,-0.126 -1.11,0.098 -1.197,0.514c-0.21,0.979 1.517,1.533 2.46,2.979c0.341,0.524 0.417,1.021 0.306,1.531c-0.234,1.108 -1.419,1.765 -2.684,1.499c-0.852,-0.181 -1.556,-0.686 -1.748,-0.729c-0.094,-0.017 -0.181,0.019 -0.259,0.125l-0.278,-0.06l0.147,-1.986Z"
        style="fill:#93560e;fill-rule:nonzero;"/><path
        d="M82.705,8.293l3.274,1.106c0,0 -1.172,0.313 -1.353,0.85l-1.377,4.08c-0.171,0.503 0.568,1.479 0.568,1.479l-3.276,-1.108c0,0 1.119,-0.354 1.271,-0.811l1.392,-4.119c0.182,-0.538 -0.499,-1.477 -0.499,-1.477Z"
        style="fill:#93560e;fill-rule:nonzero;"/><path
        d="M92.646,17.556l-0.729,1.445c-0.862,-0.029 -2.009,-0.246 -2.843,-0.667c-2.457,-1.241 -2.95,-3.207 -2.01,-5.07c0.897,-1.776 3.025,-2.346 5.093,-1.302c1,0.503 1.606,1.235 1.934,1.403c0.146,0.071 0.245,0.071 0.356,0.02l0.242,0.123l-0.897,1.778l-0.386,-0.195c0.234,-1.124 -0.208,-2.081 -1.218,-2.59c-1.379,-0.695 -2.879,-0.091 -3.673,1.484c-0.803,1.591 -0.404,3.279 0.946,3.963c0.373,0.186 0.828,0.292 1.169,0.271l0.677,-1.338c0.245,-0.488 -0.7,-1.584 -0.7,-1.584l3.223,1.628c0,0 -0.959,0.183 -1.184,0.631Z"
        style="fill:#93560e;fill-rule:nonzero;"/><path
        d="M97.671,15.392l2.838,1.977c0,0 -1.216,-0.023 -1.54,0.437l-2.461,3.538c-0.303,0.435 0.134,1.575 0.134,1.575l-2.839,-1.976c0,0 1.174,-0.03 1.45,-0.422l2.485,-3.572c0.324,-0.462 -0.067,-1.557 -0.067,-1.557Z"
        style="fill:#93560e;fill-rule:nonzero;"/><path
        d="M107.808,34.33l-3.661,-4.532c0,0 1.205,0.423 1.623,0.087l3.384,-2.732c0.496,-0.404 0.266,-1.586 0.266,-1.586l2.317,2.865c0,0 -1.227,-0.448 -1.625,-0.126l-3.484,2.816c-0.315,0.253 -0.315,0.407 -0.048,0.737l0.866,1.071c0.46,0.569 2.332,0.832 2.332,0.832l-1.97,0.568Z"
        style="fill:#93560e;fill-rule:nonzero;"/><path
        d="M102.976,28.482l-4.286,-3.952c0,0 1.257,0.242 1.618,-0.149l2.95,-3.198c0.436,-0.473 0.034,-1.61 0.034,-1.61l2.712,2.501c0,0 -1.282,-0.265 -1.628,0.11l-3.037,3.293c-0.274,0.295 -0.252,0.451 0.061,0.737l1.014,0.937c0.537,0.492 2.429,0.479 2.429,0.479l-1.867,0.852Z"
        style="fill:#93560e;fill-rule:nonzero;"/><path
        d="M113.523,32.965c0.488,-0.711 0.532,-1.723 0.532,-1.723l1.93,3.239c0,0 -1.258,-0.691 -1.652,-0.101l-2.151,3.189l4.118,-0.345c0.394,-0.057 0.454,-1.453 0.454,-1.453l1.415,2.374c0,0 -1.106,-0.455 -2.028,-0.323l-6.358,0.53l3.74,-5.387Z"
        style="fill:#93560e;fill-rule:nonzero;"/><path
        d="M118.183,41.773l-0.008,-0.02l-3.727,1.078c-0.688,0.201 -1.11,1.344 -1.11,1.344l-0.815,-2.272c0,0 0.931,0.593 1.796,0.341l3.789,-1.102c0.532,-0.155 0.931,-1.107 0.931,-1.107l0.773,2.162l-3.586,3.53l4.985,0.379l0.788,2.201c0,0 -0.721,-0.632 -1.442,-0.316l-3.69,1.598c-0.842,0.358 -1.09,1.405 -1.09,1.405l-1.155,-3.222c0,0 0.744,0.817 1.411,0.579c0.163,-0.059 0.321,-0.126 0.471,-0.192l3.553,-1.535l-0.008,-0.021l-6.001,-0.441l-0.089,-0.245l4.224,-4.144Z"
        style="fill:#93560e;fill-rule:nonzero;"/><path
        d="M118.88,66.06c-0.662,-0.031 -1.348,1.02 -1.348,1.02l0.111,-2.631c0,0 0.626,0.919 1.07,0.937l4.986,0.203c0.175,-0.229 0.699,-0.838 0.699,-0.838l-0.09,2.238l-4.814,4.241l3.282,0.136c0.782,0.033 1.393,-1.086 1.393,-1.086l-0.115,2.805c0,0 -0.523,-1.025 -0.936,-1.039l-5.811,-0.242l0.024,-0.598l5.659,-4.981l-4.11,-0.165Z"
        style="fill:#93560e;fill-rule:nonzero;"/><path
        d="M123.565,75.288l-0.67,3.39c0,0 -0.467,-1.124 -1.02,-1.23l-4.224,-0.842c-0.522,-0.102 -1.391,0.752 -1.391,0.752l0.675,-3.392c0,0 0.495,1.064 0.968,1.16l4.264,0.848c0.555,0.111 1.398,-0.686 1.398,-0.686Z"
        style="fill:#93560e;fill-rule:nonzero;"/><path
        d="M116.543,93.61l1.084,-2.121l-2.174,-1.113l-0.805,1.569c-0.271,0.532 0.126,1.466 0.126,1.466l-1.925,-0.981c0,0 0.962,-0.162 1.343,-0.902l0.726,-1.424l-1.741,-0.893c-0.417,-0.211 -0.544,-0.183 -0.689,0.101l-0.825,1.615c-0.323,0.629 0.227,1.986 0.227,1.986l-1.458,-0.895l2.984,-5.824c0,0 0.01,1.459 0.482,1.699l3.864,1.979c0.523,0.269 1.567,-0.382 1.567,-0.382l-2.734,5.332l-1.453,-0.623c0,0 1.174,-0.144 1.401,-0.589Z"
        style="fill:#93560e;fill-rule:nonzero;"/><path
        d="M105.32,102.208c0,0 -2.16,-0.133 -2.764,0.478c-0.504,0.509 -0.562,1.216 -0.127,1.646c1.151,1.139 3.565,-1.379 5.096,0.132c0.742,0.734 0.619,1.897 -0.29,2.816c-0.589,0.594 -1.248,0.859 -1.363,0.976c-0.052,0.057 -0.244,0.416 -0.244,0.416l-1.398,-1.092c0,0 2.001,0.051 2.589,-0.543c0.428,-0.435 0.517,-0.989 0.215,-1.287c-0.713,-0.705 -2.11,0.451 -3.836,0.46c-0.627,0.007 -1.082,-0.2 -1.455,-0.567c-0.805,-0.795 -0.72,-2.148 0.189,-3.068c0.611,-0.621 1.417,-0.936 1.553,-1.084c0.07,-0.067 0.085,-0.153 0.04,-0.28l0.197,-0.199l1.598,1.196Z"
        style="fill:#93560e;fill-rule:nonzero;"/><path
        d="M103.038,110.921l-2.725,2.127c0,0 0.381,-1.155 0.033,-1.6l-2.653,-3.391c-0.327,-0.422 -1.547,-0.337 -1.547,-0.337l2.726,-2.128c0,0 -0.316,1.133 -0.023,1.504l2.678,3.432c0.349,0.445 1.511,0.393 1.511,0.393Z"
        style="fill:#93560e;fill-rule:nonzero;"/><path
        d="M73.27,124.279l-3.439,0.356c0,0 0.936,-0.777 0.877,-1.338l-0.44,-4.282c-0.054,-0.531 -1.13,-1.111 -1.13,-1.111l3.439,-0.354c0,0 -0.867,0.79 -0.82,1.265l0.444,4.328c0.059,0.562 1.069,1.136 1.069,1.136Z"
        style="fill:#93560e;fill-rule:nonzero;"/><path
        d="M66.416,119.946c0,0 -1.402,-1.649 -2.261,-1.664c-0.717,-0.008 -1.264,0.441 -1.274,1.046c-0.025,1.622 3.47,1.614 3.439,3.769c-0.013,1.042 -0.937,1.761 -2.232,1.742c-0.836,-0.012 -1.483,-0.302 -1.649,-0.305c-0.074,-0.002 -0.468,0.113 -0.468,0.113l-0.183,-1.764c0,0 1.35,1.477 2.189,1.486c0.608,0.008 1.07,-0.31 1.076,-0.735c0.011,-1.002 -1.791,-1.208 -2.992,-2.442c-0.438,-0.454 -0.607,-0.92 -0.6,-1.446c0.014,-1.132 1.047,-2.008 2.342,-1.992c0.87,0.014 1.66,0.371 1.854,0.375c0.1,0 0.513,-0.168 0.513,-0.168l0.246,1.985Z"
        style="fill:#93560e;fill-rule:nonzero;"/><path
        d="M47.526,117.502l0.427,-1.561c0.85,-0.144 2.016,-0.161 2.919,0.085c2.652,0.724 3.529,2.55 2.981,4.568c-0.527,1.916 -2.499,2.902 -4.731,2.292c-1.079,-0.294 -1.818,-0.892 -2.176,-0.989c-0.157,-0.043 -0.613,-0.026 -0.613,-0.026l0.523,-1.91c0,0 1.037,2.106 2.129,2.401c1.489,0.406 2.836,-0.491 3.3,-2.188c0.471,-1.721 -0.262,-3.293 -1.719,-3.692c-0.398,-0.111 -0.867,-0.122 -1.197,-0.034l-0.394,1.449c-0.231,0.943 1,1.41 1,1.41l-3.484,-0.95c0,0 0.904,-0.371 1.035,-0.855Z"
        style="fill:#93560e;fill-rule:nonzero;"/><path
        d="M26.095,103.153l-1.336,1.402l2.596,2.475l1.351,-1.418c0.398,-0.414 0.132,-1.583 0.132,-1.583l2.526,2.405c0,0 -1.183,-0.195 -1.559,0.199l-2.986,3.134c-0.377,0.394 -0.125,1.565 -0.125,1.565l-2.525,-2.41c0,0 1.145,0.25 1.566,-0.191l1.176,-1.235l-2.595,-2.476l-1.155,1.208c-0.424,0.442 -0.164,1.575 -0.164,1.575l-2.519,-2.401c0,0 1.169,0.241 1.574,-0.185l2.972,-3.113c0.39,-0.412 0.123,-1.597 0.123,-1.597l2.518,2.404c0,0 -1.165,-0.183 -1.57,0.242Z"
        style="fill:#93560e;fill-rule:nonzero;"/><path
        d="M7.408,76.221l0,0.019l3.872,-0.268c0.718,-0.053 1.37,-1.085 1.37,-1.085l0.316,2.394c0,0 -0.782,-0.77 -1.683,-0.71l-3.934,0.281c-0.554,0.043 -1.143,0.888 -1.143,0.888l-0.303,-2.274l4.249,-2.705l-4.796,-1.412l-0.305,-2.317c0,0 0.571,0.767 1.34,0.607l3.945,-0.783c0.898,-0.174 1.36,-1.148 1.36,-1.148l0.453,3.399c0,0 -0.554,-0.961 -1.257,-0.867c-0.173,0.024 -0.342,0.058 -0.503,0.089l-3.794,0.755l0.004,0.023l5.775,1.691l0.033,0.258l-4.999,3.165Z"
        style="fill:#93560e;fill-rule:nonzero;"/><path
        d="M122.516,56.749c0.748,-0.425 1.224,-1.321 1.224,-1.321l0.338,3.759c0,0 -0.836,-1.171 -1.451,-0.811l-2.952,1.698l3.581,1.63c0.383,0.121 0.956,-1.023 0.956,-1.023l0.247,2.749c0,0 -0.799,-0.888 -1.687,-1.169l-5.583,-2.457l5.327,-3.055Z"
        style="fill:#93560e;fill-rule:nonzero;"/><path
        d="M120.849,81.259c0.854,-0.114 1.633,-0.759 1.633,-0.759l-1.113,3.603c0,0 -0.329,-1.398 -1.032,-1.296l-3.378,0.452l2.696,2.865c0.309,0.252 1.275,-0.588 1.275,-0.588l-0.813,2.641c0,0 -0.406,-1.127 -1.121,-1.721l-4.234,-4.389l6.087,-0.808Z"
        style="fill:#93560e;fill-rule:nonzero;"/><path
        d="M9.943,85.586c-0.629,0.593 -0.872,1.579 -0.872,1.579l-1.226,-3.574c0,0 1.093,0.937 1.598,0.443l2.468,-2.357l-3.868,-0.729c-0.402,-0.021 -0.685,1.226 -0.685,1.226l-0.896,-2.615c0,0 0.989,0.674 1.92,0.733l6.003,1.055l-4.442,4.239Z"
        style="fill:#93560e;fill-rule:nonzero;"/><path
        d="M33.92,109.498c0.319,-0.466 -0.287,-1.705 -0.287,-1.705l3.217,2.226c0,0 -1.369,-0.138 -1.698,0.332l-3.01,4.39l1.059,0.73c0.684,0.477 2.061,-0.133 2.061,-0.133l-1.119,1.341l-5.686,-3.937l0.795,-1.564c0,0 -0.087,1.499 0.6,1.977l1.058,0.728l3.01,-4.385Z"
        style="fill:#93560e;fill-rule:nonzero;"/><path
        d="M76.787,117.871c-0.127,-0.546 -1.456,-0.931 -1.456,-0.931l3.811,-0.893c0,0 -1.025,0.923 -0.893,1.483l1.194,5.014l1.246,-0.292c0.818,-0.189 1.288,-1.619 1.288,-1.619l0.244,1.728l-6.735,1.575l-0.625,-1.638c0,0 1.053,1.072 1.869,0.88l1.247,-0.292l-1.19,-5.015Z"
        style="fill:#93560e;fill-rule:nonzero;"/><path
        d="M91.768,112.004c-0.287,-0.488 -1.668,-0.462 -1.668,-0.462l3.384,-1.969c0,0 -0.709,1.177 -0.419,1.675l2.696,4.588l1.111,-0.648c0.721,-0.422 0.754,-1.922 0.754,-1.922l0.739,1.58l-5.977,3.48l-1.076,-1.382c0,0 1.321,0.713 2.043,0.291l1.11,-0.648l-2.697,-4.583Z"
        style="fill:#93560e;fill-rule:nonzero;"/><path
        d="M118.78,53.502c0.005,-0.59 0.487,-1.065 1.076,-1.061c0.592,0.006 1.066,0.488 1.06,1.076c-0.003,0.591 -0.487,1.066 -1.073,1.061c-0.593,-0.004 -1.066,-0.488 -1.063,-1.076Z"
        style="fill:#93560e;fill-rule:nonzero;"/><path
        d="M56.577,120.668c0.006,-0.593 0.486,-1.067 1.076,-1.06c0.591,0.004 1.065,0.484 1.06,1.077c-0.004,0.587 -0.489,1.061 -1.074,1.058c-0.592,-0.007 -1.065,-0.487 -1.062,-1.075Z"
        style="fill:#93560e;fill-rule:nonzero;"/><path
        d="M7.525,64.904c0.004,-0.587 0.485,-1.062 1.074,-1.059c0.59,0.003 1.065,0.487 1.061,1.079c-0.005,0.587 -0.488,1.061 -1.079,1.058c-0.588,-0.007 -1.063,-0.489 -1.056,-1.078Z"
        style="fill:#93560e;fill-rule:nonzero;"/><path
        d="M16.559,35.978c1.479,1.074 3.628,0.835 5.099,-1.187c1.525,-2.105 1.005,-4.328 -0.564,-5.464c-1.645,-1.194 -3.745,-0.731 -5.079,1.108c-1.425,1.962 -1.198,4.28 0.544,5.543Zm0.527,-1.618c-1.327,-0.964 -1.657,-2.322 -0.846,-3.438c0.97,-1.338 2.802,-1.081 4.22,-0.054c1.213,0.88 1.853,2.221 0.966,3.443c-0.903,1.239 -2.655,1.269 -4.34,0.049Z"
        style="fill:#93560e;fill-rule:nonzero;"/><path
        d="M46.259,12.583l1.906,-0.723c0.786,-0.293 1.852,0.043 1.852,0.043l-1.495,-1.725c0,0 -0.102,0.946 -0.664,1.154l-2.002,0.813l-1.765,-2.152l2.898,-0.963c0.467,-0.176 1.642,0.245 1.642,0.245l-1.253,-1.171l-6.159,2.117c0,0 0.778,0.208 0.645,1.264l-0.088,4.633c-0.092,0.811 -0.586,1.643 -0.586,1.643l2.343,-0.873c0,0 -1.016,-0.425 -0.955,-0.947l0.117,-1.327l2.575,-0.785l1.445,1.774l5.695,-2.184l-1.206,-1.322c0,0 0.423,0.977 -0.241,1.224l-3.029,1.182l-1.675,-1.92Zm-1.365,0.869l-2.14,0.676l0.094,-3.159l2.046,2.483Z"
        style="fill:#93560e;fill-rule:nonzero;"/><path
        d="M13.755,41.793l0.18,-0.386c0.556,-1.191 0.513,-2.051 -0.543,-2.542c-1.047,-0.487 -1.791,0.135 -2.237,1.091l-0.238,0.513l2.838,1.324Zm1.91,0.889c0.506,0.234 1.606,-0.56 1.606,-0.56l-1.606,3.452c0,0 -0.058,-1.264 -0.629,-1.531l-3.895,-1.814c-0.473,-0.219 -1.598,0.469 -1.598,0.469c0.199,-0.505 0.356,-0.888 0.513,-1.305c0.216,-0.572 0.519,-1.297 0.684,-1.651c0.672,-1.451 1.228,-2.152 1.952,-2.415c0.476,-0.176 0.917,-0.149 1.344,0.05c0.747,0.347 1.089,1.166 0.906,2.198c0.848,-0.4 1.786,-0.383 2.812,-0.756c0.593,-0.216 1.569,-0.849 1.569,-0.849c-0.089,0.217 -0.135,0.316 -0.272,0.613c-0.568,1.222 -0.981,1.643 -1.661,1.889c-0.719,0.265 -2.022,0.355 -2.858,0.733l-0.363,0.78l1.496,0.697Z"
        style="fill:#93560e;fill-rule:nonzero;"/><path
        d="M9.496,49.153l1.859,1.527l0.561,-1.897l-2.42,0.37Zm2.196,1.881l0.929,0.762c0.406,0.329 1.333,-0.691 1.333,-0.691l-0.851,2.857c0,0 -0.273,-1.112 -0.829,-1.567l-5.197,-4.405l6.841,-1.061c0.682,-0.106 1.49,-0.734 1.49,-0.734l-1.04,3.499c0,0 -0.262,-1.304 -0.773,-1.219l-1.203,0.2l-0.7,2.359Z"
        style="fill:#93560e;fill-rule:nonzero;"/><path
        d="M14.952,91.155l-0.2,-0.371c-0.617,-1.164 -1.332,-1.645 -2.356,-1.101c-1.019,0.542 -0.969,1.512 -0.474,2.444l0.264,0.498l2.766,-1.47Zm1.826,-0.915c0.491,-0.259 0.518,-1.618 0.518,-1.618l1.786,3.359c0,0 -1.042,-0.709 -1.601,-0.417l-3.792,2.014c-0.461,0.249 -0.588,1.561 -0.588,1.561c-0.284,-0.463 -0.497,-0.822 -0.734,-1.198c-0.326,-0.518 -0.722,-1.197 -0.907,-1.538c-0.749,-1.414 -0.976,-2.279 -0.749,-3.014c0.149,-0.488 0.436,-0.824 0.849,-1.043c0.73,-0.388 1.586,-0.165 2.302,0.6c0.191,-0.915 0.772,-1.655 1.09,-2.697c0.184,-0.602 0.27,-1.768 0.27,-1.768c0.122,0.204 0.172,0.306 0.323,0.59c0.633,1.19 0.722,1.774 0.508,2.465c-0.223,0.732 -0.935,1.826 -1.137,2.723l0.404,0.757l1.458,-0.776Z"
        style="fill:#93560e;fill-rule:nonzero;"/><path
        d="M21.589,96.341c-0.901,-1.217 -2.372,-1.008 -3.575,-0.116c-1.407,1.043 -2.201,2.713 -1.217,4.043c0.822,1.106 2.215,1.201 3.534,0.223c1.67,-1.234 2.168,-2.92 1.258,-4.15Zm-5.322,3.993c-1.353,-1.825 -1.167,-3.968 0.467,-5.179c1.554,-1.148 3.83,-0.98 5.38,1.107c1.486,2.009 1.069,4.133 -0.399,5.219c-1.728,1.284 -4.006,0.803 -5.448,-1.147Z"
        style="fill:#93560e;fill-rule:nonzero;"/><path
        d="M42.28,113.358c-1.374,-0.636 -2.563,0.25 -3.195,1.609c-0.738,1.587 -0.634,3.434 0.866,4.134c1.251,0.577 2.519,-0.007 3.21,-1.499c0.875,-1.881 0.507,-3.598 -0.881,-4.244Zm-2.764,6.051c-2.062,-0.956 -2.921,-2.924 -2.065,-4.769c0.811,-1.753 2.892,-2.696 5.251,-1.601c2.269,1.053 2.918,3.116 2.148,4.773c-0.905,1.951 -3.135,2.622 -5.334,1.597Z"
        style="fill:#93560e;fill-rule:nonzero;"/><path
        d="M110.497,97.743l-0.254,0.341c-0.788,1.053 -0.924,1.901 0.008,2.599c0.922,0.691 1.782,0.239 2.414,-0.608l0.337,-0.453l-2.505,-1.879Zm-1.657,-1.297c-0.444,-0.33 -1.682,0.221 -1.682,0.221l2.28,-3.048c0,0 -0.202,1.251 0.304,1.63l3.435,2.574c0.418,0.314 1.66,-0.131 1.66,-0.131c-0.298,0.453 -0.53,0.797 -0.772,1.176c-0.328,0.515 -0.772,1.157 -1.008,1.471c-0.958,1.279 -1.647,1.853 -2.408,1.962c-0.503,0.07 -0.928,-0.047 -1.303,-0.326c-0.661,-0.494 -0.825,-1.363 -0.438,-2.336c-0.906,0.213 -1.823,0.004 -2.902,0.157c-0.625,0.09 -1.714,0.51 -1.714,0.51c0.132,-0.198 0.2,-0.284 0.394,-0.542c0.808,-1.082 1.299,-1.41 2.013,-1.51c0.763,-0.112 2.053,0.07 2.951,-0.128l0.514,-0.688l-1.324,-0.992Z"
        style="fill:#93560e;fill-rule:nonzero;"/><path
        d="M86.903,118.315l0.051,-2.404l-1.838,0.726l1.787,1.678Zm0.121,-2.889l0.025,-1.203c0.009,-0.52 -1.362,-0.619 -1.362,-0.619l2.77,-1.096c0,0 -0.707,0.903 -0.72,1.621l-0.258,6.807l-5.057,-4.723c-0.504,-0.474 -1.499,-0.72 -1.499,-0.72l3.396,-1.346c0,0 -0.864,1.014 -0.484,1.363l0.902,0.82l2.287,-0.904Z"
        style="fill:#93560e;fill-rule:nonzero;"/><path
        d="M65.461,21.127c-0.296,-0.784 -1.084,-1.375 -1.084,-1.375l3.658,0.244c0,0 -1.252,0.627 -0.996,1.268l1.181,3.092l2.108,-3.187c0.17,-0.349 -0.841,-1.073 -0.841,-1.073l2.677,0.18c0,0 -0.974,0.634 -1.377,1.443l-3.205,4.98l-2.121,-5.572Z"
        style="fill:#93560e;fill-rule:nonzero;"/><path
        d="M35.434,32.298c-0.742,-0.381 -1.724,-0.292 -1.724,-0.292l2.875,-2.271c0,0 -0.506,1.301 0.113,1.608l2.949,1.497l-0.577,-3.776c-0.107,-0.373 -1.34,-0.233 -1.34,-0.233l2.105,-1.66c0,0 -0.3,1.12 -0.054,1.992l0.966,5.844l-5.313,-2.709Z"
        style="fill:#93560e;fill-rule:nonzero;"/><path
        d="M91.801,30.286c0.255,-0.797 0.005,-1.75 0.005,-1.75l2.713,2.464c0,0 -1.366,-0.287 -1.566,0.375l-1.018,3.34l3.655,-1.376c0.351,-0.168 0.01,-1.361 0.01,-1.361l1.987,1.802c0,0 -1.158,-0.108 -1.976,0.276l-5.603,1.916l1.793,-5.686Z"
        style="fill:#93560e;fill-rule:nonzero;"/><path
        d="M46.977,29.601c0.232,0.496 1.57,0.593 1.57,0.593l-3.441,1.615c0,0 0.788,-1.08 0.551,-1.588l-2.217,-4.666l-1.126,0.528c-0.738,0.347 -0.898,1.796 -0.898,1.796l-0.58,-1.592l6.082,-2.853l0.922,1.429c0,0 -1.215,-0.804 -1.952,-0.457l-1.127,0.528l2.216,4.667Z"
        style="fill:#93560e;fill-rule:nonzero;"/><path
        d="M74.584,22.267l-0.021,-0.007l-1.31,3.532c-0.24,0.656 0.409,1.645 0.409,1.645l-2.244,-0.676c0,0 0.998,-0.382 1.301,-1.206l1.328,-3.594c0.185,-0.503 -0.324,-1.365 -0.324,-1.365l2.131,0.643l0.688,4.841l3.172,-3.675l2.176,0.657c0,0 -0.912,0.201 -1.081,0.944l-0.884,3.803c-0.206,0.861 0.469,1.663 0.469,1.663l-3.185,-0.962c0,0 1.068,-0.107 1.268,-0.762c0.047,-0.161 0.087,-0.328 0.121,-0.482l0.852,-3.661l-0.017,-0.006l-3.811,4.433l-0.243,-0.074l-0.795,-5.691Z"
        style="fill:#93560e;fill-rule:nonzero;"/><path
        d="M100.609,38.331l-1.422,-1.822l-1.875,1.461l1.053,1.349c0.356,0.458 1.346,0.487 1.346,0.487l-1.658,1.295c0,0 0.256,-0.911 -0.243,-1.549l-0.955,-1.226l-1.499,1.17c-0.358,0.278 -0.382,0.403 -0.195,0.644l1.086,1.39c0.421,0.543 1.845,0.613 1.845,0.613l-1.386,0.92l-3.912,-5.012c0,0 1.289,0.588 1.7,0.27l3.32,-2.592c0.449,-0.351 0.303,-1.535 0.303,-1.535l3.578,4.587l-1.143,1.024c0,0 0.357,-1.092 0.057,-1.474Z"
        style="fill:#93560e;fill-rule:nonzero;"/><path
        d="M59.182,23.603l0.41,-0.043c1.271,-0.135 1.964,-0.598 1.849,-1.722c-0.118,-1.113 -1.009,-1.424 -2.027,-1.317l-0.548,0.056l0.316,3.026Zm0.172,2.028c0.057,0.538 1.269,1.058 1.269,1.058l-3.675,0.383c0,0 1.02,-0.678 0.959,-1.289l-0.432,-4.146c-0.053,-0.506 -1.187,-1.098 -1.187,-1.098c0.523,-0.088 0.917,-0.15 1.346,-0.224c0.584,-0.105 1.337,-0.215 1.716,-0.256c1.543,-0.159 2.402,-0.05 2.985,0.422c0.382,0.312 0.58,0.694 0.629,1.145c0.081,0.798 -0.431,1.488 -1.38,1.853c0.752,0.503 1.207,1.297 2.03,1.966c0.474,0.385 1.494,0.881 1.494,0.881c-0.231,0.037 -0.335,0.049 -0.649,0.081c-1.302,0.134 -1.858,0.003 -2.402,-0.441c-0.582,-0.47 -1.306,-1.51 -2.037,-2.017l-0.831,0.089l0.165,1.593Z"
        style="fill:#93560e;fill-rule:nonzero;"/><path
        d="M31.439,42.987c0.577,0.409 0.714,0.378 1.186,-0.287c1.369,-1.941 0.395,-3.379 -0.633,-4.106c-0.717,-0.503 -1.539,-0.71 -2.201,-0.595c-0.723,0.122 -1.329,0.56 -1.948,1.438c-0.164,0.238 -0.291,0.433 -0.431,0.706l4.027,2.844Zm-5.771,-1.089c0.301,-0.483 0.662,-1.03 0.909,-1.437c0.281,-0.449 0.492,-0.79 0.792,-1.211c1.218,-1.726 2.006,-2.386 3.095,-2.572c0.779,-0.138 1.591,0.035 2.322,0.554c0.786,0.551 1.235,1.384 1.368,2.164c0.13,0.751 0.063,1.778 -1.186,3.547l-1.934,2.744c0,0 0.119,-1.121 -0.376,-1.467l-3.331,-2.35c-0.611,-0.433 -1.659,0.028 -1.659,0.028Z"
        style="fill:#93560e;fill-rule:nonzero;"/><path
        d="M24.479,48.844l1.64,1.659l0.732,-1.777l-2.372,0.118Zm1.933,2.036l0.82,0.828c0.358,0.356 1.353,-0.532 1.353,-0.532l-1.102,2.671c0,0 -0.153,-1.099 -0.646,-1.594l-4.581,-4.775l6.712,-0.339c0.672,-0.036 1.515,-0.563 1.515,-0.563l-1.353,3.277c0,0 -0.122,-1.287 -0.623,-1.256l-1.185,0.073l-0.91,2.21Z"
        style="fill:#93560e;fill-rule:nonzero;"/><path
        d="M84.667,31.379c1.289,0.702 2.498,-0.078 3.195,-1.359c0.815,-1.491 0.834,-3.285 -0.573,-4.057c-1.175,-0.642 -2.441,-0.155 -3.206,1.246c-0.97,1.768 -0.723,3.456 0.584,4.17Zm3.063,-5.69c1.937,1.057 2.645,3.02 1.698,4.753c-0.903,1.65 -2.977,2.427 -5.192,1.218c-2.131,-1.165 -2.63,-3.206 -1.777,-4.763c1.001,-1.835 3.203,-2.339 5.271,-1.208Z"
        style="fill:#93560e;fill-rule:nonzero;"/><path
        d="M87.918,36.529c-2.223,-1.82 -1.471,-1.555 -2.081,-3.48c-0.605,-1.924 -0.191,-4.651 -0.624,-4.956c-0.43,-0.308 0.965,-0.415 1.44,3.707c0.476,4.121 1.265,4.729 1.265,4.729Z"
        style="fill:#93560e;fill-rule:nonzero;"/><path
        d="M32.658,119.862c-18.716,-11.057 -31.293,-31.433 -31.293,-54.698c0,-34.996 28.474,-63.47 63.471,-63.47c34.997,0 63.473,28.474 63.473,63.47c0,35 -28.476,63.474 -63.473,63.474c-11.58,0 -22.449,-3.12 -31.806,-8.56l-1.025,-0.558l-0.725,1.049l1.04,0.675c9.564,5.569 20.675,8.756 32.516,8.756c35.752,0 64.837,-29.082 64.837,-64.836c0,-35.75 -29.085,-64.836 -64.837,-64.836c-35.75,0 -64.836,29.086 -64.836,64.836c0,23.757 12.841,44.566 31.945,55.859l0.786,0.4l0.619,-1.113l-0.692,-0.448Z"
        style="fill:#93560e;fill-rule:nonzero;"/><path
        d="M39.42,106.387c-13.781,-8.528 -23.016,-23.857 -23.016,-41.223c0,-22.487 15.499,-41.507 36.323,-46.896l0.375,-1.117c-21.602,5.282 -37.684,24.806 -37.684,48.013c0,17.747 9.4,33.339 23.488,42.055l0.753,0.41l0.451,-0.789l-0.69,-0.453Z"
        style="fill:#93560e;fill-rule:nonzero;"/><path
        d="M39.36,107.5c7.446,4.495 16.165,7.084 25.476,7.084c27.251,0 49.42,-22.169 49.42,-49.42c0,-27.248 -22.169,-49.417 -49.42,-49.417c-3.158,0 -6.251,0.298 -9.245,0.866l-0.162,1.036c3.043,-0.601 6.192,-0.918 9.407,-0.918c26.671,0 48.436,21.766 48.436,48.433c0,26.669 -21.765,48.366 -48.436,48.366c-9.154,0 -17.719,-2.557 -25.026,-6.994l-0.745,-0.423l-0.749,0.661l1.044,0.726Z"
        style="fill:#93560e;fill-rule:nonzero;"/><path
        d="M64.335,11.985c-0.442,-0.023 -0.885,-0.146 -1.296,-0.385c-0.388,-0.223 -0.704,-0.529 -0.939,-0.875"
        style="fill:#93560e;fill-rule:nonzero;"/><path
        d="M65.056,8.023l1.656,-1.595c0.349,0.273 0.633,0.636 0.826,1.071c0.181,0.409 0.261,0.84 0.247,1.263l-2.297,0.187l2.058,1.093c-0.155,0.413 -0.412,0.797 -0.767,1.113c-0.332,0.301 -0.716,0.508 -1.124,0.626l-0.912,-2.136l-0.408,2.34c-0.442,-0.023 -0.885,-0.146 -1.296,-0.385c-0.388,-0.223 -0.704,-0.529 -0.939,-0.875l1.75,-1.574l-2.235,0.354c-0.117,-0.427 -0.136,-0.887 -0.038,-1.351c0.094,-0.439 0.285,-0.831 0.545,-1.166l1.923,1.161l-1.012,-1.93c0.368,-0.243 0.802,-0.405 1.272,-0.454c0.449,-0.046 0.881,0.012 1.279,0.157l-0.528,2.101Z"
        style="fill:#93560e;fill-rule:nonzero;"/><path
        d="M88.629,51.769c-0.419,-0.009 -1.006,-0.387 -1.169,-0.907c-0.164,-0.521 0.308,-0.858 0.308,-0.858c0.017,0.019 0.033,0.039 0.055,0.057c0.033,0.039 0.055,0.068 0.055,0.068l0.004,-0.017c0.097,0.07 0.235,0.012 0.368,0.007c0.299,-0.015 0.357,-0.128 0.344,-0.403c-0.011,-0.277 -0.248,-0.522 -0.533,-0.44c-0.26,0.072 -0.658,0.132 -0.883,-0.02c-0.079,-0.057 -0.095,-0.305 -0.03,-0.513c0.021,-0.124 0.136,-0.379 0.135,-0.447c-0.009,-0.188 -0.237,-0.321 -0.445,-0.313c-0.205,0.01 -0.395,0.176 -0.387,0.364c0.012,0.268 0.181,0.373 0.298,0.506c0.176,0.2 0.113,0.361 0.051,0.462c-0.048,0.075 -0.558,0.249 -0.558,0.249l0.009,0.02c-0.04,-0.005 -0.078,-0.009 -0.117,-0.006c-0.302,0.013 -0.509,0.155 -0.497,0.43c0.01,0.275 0.175,0.466 0.472,0.455c0.194,-0.01 0.358,-0.111 0.448,-0.257c0,0 0.444,0.342 0.383,0.77c-0.058,0.422 -0.091,0.767 -0.891,1.016c-0.65,0.205 -1.052,-0.187 -1.052,-0.187c0,0 -0.196,0.568 -0.785,0.501c-0.902,-0.101 -1.063,-1.19 -1.063,-1.19c0,0 0.373,0.015 0.562,-0.47c0.157,-0.408 -0.114,-0.658 -0.553,-0.718c-0.27,-0.038 -0.608,0.377 -0.979,0.218c-0.374,-0.161 0.194,-0.89 -0.293,-1.166c-0.448,-0.254 -0.707,0.328 -0.707,0.328c0,0 0.686,0.71 1.582,2.003c0.716,1.033 1.72,2.264 1.72,2.264l-0.509,0.341c0,0 -0.694,-1.077 -1.793,-2.561c-0.936,-1.265 -1.666,-2.05 -1.666,-2.05c0,0 -0.026,-0.108 0.234,-0.374c0.331,-0.342 0.837,-0.812 1.443,-0.538c0.61,0.277 0.302,1.228 0.302,1.228c0,0 0.328,-0.361 0.873,-0.288c0.588,0.078 1.109,0.624 1.014,1.14c-0.133,0.732 -0.584,0.917 -0.584,0.917c0,0 -0.07,0.285 0.493,0.228c0.342,-0.035 0.568,-0.541 0.568,-0.541c0.026,-0.008 0.849,0.755 1.292,0.174c0.043,-0.054 0.069,-0.122 0.103,-0.188c-0.067,0.016 -0.142,0.028 -0.213,0.028c-0.565,0.006 -1.026,-0.453 -1.034,-1.027c-0.007,-0.575 0.441,-1.045 1.005,-1.054c0.208,-0.002 0.058,-0.014 0.347,0.04c-0.225,-0.123 -0.508,-0.365 -0.518,-0.778c-0.005,-0.483 0.51,-0.97 0.981,-0.977c0.471,-0.006 1.067,0.429 1.074,0.91c0.002,0.304 -0.162,0.542 -0.288,0.679c0.126,-0.137 0.317,-0.214 0.613,-0.214c0.563,-0.008 1.024,0.452 1.032,1.024c0.009,0.577 -0.441,1.048 -1.002,1.055c-0.047,0 -0.09,-0.007 -0.137,-0.013c0.01,0.009 0.019,0.02 0.025,0.026c0.201,0.169 0.448,0.244 0.667,0.282c0.689,0.129 0.767,-0.416 0.767,-0.416c0,0 0.335,0.313 0.66,0.206c0.536,-0.176 0.422,-0.506 0.422,-0.506c0,0 -0.494,0.073 -0.915,-0.543c-0.297,-0.433 -0.267,-0.919 0.238,-1.235c0.465,-0.286 1.094,-0.116 1.094,-0.116c0,0 -0.584,-0.686 -0.139,-1.182c0.441,-0.499 1.082,-0.274 1.522,-0.099c0.346,0.138 0.566,0.263 0.566,0.263c0,0 -0.464,0.783 -0.804,2.317c-0.438,1.992 -0.699,3.069 -0.699,3.069l-0.548,-0.148c0,0 0.309,-1.728 0.622,-3.001c0.348,-1.418 0.675,-1.893 0.675,-1.893c0,0 -0.545,-0.485 -0.85,-0.07c-0.332,0.45 0.431,0.796 0.156,1.093c-0.275,0.297 -0.769,0 -0.997,0.14c-0.377,0.235 -0.344,0.386 -0.124,0.698c0.228,0.321 0.681,0.192 0.681,0.192c0,0 0.353,1.098 -0.425,1.559c-0.511,0.303 -0.985,-0.081 -0.985,-0.081c0,0 -0.161,0.498 -1.091,0.478Z"
        style="fill:#93560e;fill-rule:nonzero;"/><path
        d="M87.413,53.717c1.293,-0.14 2.157,-0.377 2.099,-0.723c-0.038,-0.222 -1.096,-0.29 -2.39,-0.154c-1.292,0.136 -2.317,0.424 -2.289,0.645c0.025,0.224 1.29,0.366 2.58,0.232Zm-3.566,-0.035c-0.062,-0.547 1.609,-1.182 3.734,-1.419c2.124,-0.237 3.895,0.015 3.959,0.562c0.064,0.546 -1.608,1.18 -3.732,1.417c-2.124,0.238 -3.898,-0.012 -3.961,-0.56Z"
        style="fill:#93560e;fill-rule:nonzero;"/><path
        d="M101.866,49.853c-0.423,-0.011 -1.007,-0.387 -1.172,-0.908c-0.164,-0.52 0.311,-0.858 0.311,-0.858c0.016,0.021 0.033,0.038 0.053,0.059c0.033,0.039 0.057,0.066 0.057,0.066l0.004,-0.017c0.096,0.069 0.235,0.012 0.366,0.006c0.301,-0.013 0.357,-0.126 0.345,-0.402c-0.011,-0.274 -0.248,-0.521 -0.537,-0.438c-0.255,0.072 -0.655,0.13 -0.876,-0.019c-0.083,-0.057 -0.098,-0.307 -0.033,-0.516c0.02,-0.121 0.135,-0.379 0.132,-0.444c-0.007,-0.187 -0.233,-0.326 -0.44,-0.314c-0.207,0.009 -0.398,0.176 -0.388,0.363c0.011,0.27 0.181,0.375 0.294,0.507c0.179,0.201 0.116,0.36 0.052,0.461c-0.045,0.076 -0.558,0.25 -0.558,0.25l0.012,0.021c-0.04,-0.007 -0.079,-0.011 -0.12,-0.007c-0.3,0.012 -0.508,0.156 -0.495,0.431c0.01,0.272 0.17,0.466 0.476,0.451c0.19,-0.007 0.354,-0.109 0.444,-0.253c0,0 0.444,0.336 0.383,0.767c-0.059,0.425 -0.091,0.769 -0.889,1.018c-0.653,0.203 -1.056,-0.188 -1.056,-0.188c0,0 -0.192,0.568 -0.783,0.502c-0.901,-0.103 -1.063,-1.191 -1.063,-1.191c0,0 0.372,0.014 0.561,-0.469c0.159,-0.408 -0.114,-0.659 -0.553,-0.719c-0.269,-0.036 -0.606,0.378 -0.977,0.218c-0.374,-0.161 0.193,-0.888 -0.297,-1.166c-0.446,-0.254 -0.704,0.328 -0.704,0.328c0,0 0.686,0.708 1.583,2.001c0.718,1.035 1.721,2.264 1.721,2.264l-0.51,0.343c0,0 -0.696,-1.078 -1.793,-2.561c-0.936,-1.264 -1.666,-2.051 -1.666,-2.051c0,0 -0.03,-0.106 0.231,-0.374c0.332,-0.341 0.838,-0.811 1.446,-0.536c0.609,0.275 0.3,1.226 0.3,1.226c0,0 0.329,-0.36 0.871,-0.287c0.591,0.08 1.113,0.625 1.017,1.142c-0.134,0.735 -0.584,0.915 -0.584,0.915c0,0 -0.068,0.285 0.493,0.229c0.338,-0.035 0.568,-0.541 0.568,-0.541c0.025,-0.009 0.847,0.754 1.292,0.174c0.044,-0.056 0.067,-0.124 0.104,-0.187c-0.072,0.015 -0.139,0.026 -0.215,0.028c-0.563,0.004 -1.026,-0.455 -1.035,-1.028c-0.006,-0.577 0.443,-1.047 1.006,-1.053c0.209,-0.004 0.061,-0.013 0.349,0.039c-0.228,-0.125 -0.513,-0.367 -0.518,-0.777c-0.007,-0.481 0.508,-0.973 0.98,-0.979c0.469,-0.004 1.066,0.43 1.074,0.911c0.002,0.302 -0.163,0.544 -0.289,0.681c0.126,-0.137 0.32,-0.214 0.614,-0.218c0.563,-0.006 1.025,0.455 1.032,1.029c0.008,0.575 -0.441,1.043 -1.005,1.051c-0.044,0 -0.085,-0.008 -0.132,-0.013c0.01,0.008 0.016,0.021 0.025,0.024c0.197,0.171 0.449,0.246 0.663,0.284c0.69,0.127 0.77,-0.415 0.77,-0.415c0,0 0.332,0.313 0.659,0.205c0.537,-0.175 0.424,-0.506 0.424,-0.506c0,0 -0.495,0.071 -0.918,-0.543c-0.294,-0.434 -0.268,-0.919 0.24,-1.232c0.467,-0.289 1.094,-0.118 1.094,-0.118c0,0 -0.585,-0.686 -0.14,-1.185c0.442,-0.498 1.079,-0.272 1.522,-0.095c0.348,0.136 0.568,0.263 0.568,0.263c0,0 -0.464,0.779 -0.804,2.317c-0.443,1.991 -0.702,3.067 -0.702,3.067l-0.547,-0.148c0,0 0.308,-1.729 0.621,-3.003c0.35,-1.416 0.675,-1.891 0.675,-1.891c0,0 -0.544,-0.485 -0.847,-0.069c-0.335,0.449 0.429,0.796 0.155,1.094c-0.274,0.297 -0.769,-0.004 -0.998,0.139c-0.38,0.235 -0.344,0.385 -0.124,0.696c0.229,0.326 0.681,0.197 0.681,0.197c0,0 0.355,1.097 -0.425,1.556c-0.512,0.301 -0.985,-0.081 -0.985,-0.081c0,0 -0.161,0.497 -1.09,0.477Z"
        style="fill:#93560e;fill-rule:nonzero;"/><path
        d="M100.65,51.799c1.292,-0.137 2.157,-0.376 2.098,-0.722c-0.037,-0.219 -1.097,-0.291 -2.389,-0.153c-1.294,0.135 -2.319,0.425 -2.292,0.648c0.025,0.223 1.29,0.362 2.583,0.227Zm-3.568,-0.032c-0.064,-0.547 1.608,-1.184 3.734,-1.42c2.124,-0.235 3.899,0.014 3.96,0.562c0.063,0.548 -1.609,1.182 -3.732,1.419c-2.126,0.235 -3.9,-0.015 -3.962,-0.561Z"
        style="fill:#93560e;fill-rule:nonzero;"/><path
        d="M96.395,58.887c-0.425,-0.01 -1.01,-0.386 -1.175,-0.906c-0.161,-0.522 0.308,-0.859 0.308,-0.859c0.019,0.021 0.037,0.039 0.056,0.059c0.035,0.036 0.057,0.065 0.057,0.065l0.003,-0.017c0.096,0.07 0.233,0.012 0.368,0.008c0.298,-0.014 0.357,-0.129 0.345,-0.404c-0.012,-0.274 -0.248,-0.519 -0.536,-0.438c-0.256,0.073 -0.66,0.129 -0.878,-0.021c-0.083,-0.056 -0.096,-0.304 -0.032,-0.513c0.018,-0.123 0.135,-0.38 0.132,-0.445c-0.007,-0.188 -0.236,-0.325 -0.442,-0.313c-0.204,0.008 -0.396,0.176 -0.39,0.366c0.015,0.266 0.185,0.371 0.299,0.503c0.179,0.202 0.115,0.36 0.052,0.463c-0.047,0.076 -0.558,0.248 -0.558,0.248l0.012,0.022c-0.04,-0.008 -0.08,-0.012 -0.122,-0.008c-0.299,0.013 -0.507,0.154 -0.496,0.431c0.013,0.272 0.174,0.466 0.475,0.453c0.192,-0.009 0.355,-0.107 0.447,-0.255c0,0 0.443,0.339 0.383,0.769c-0.062,0.421 -0.092,0.769 -0.889,1.018c-0.654,0.201 -1.056,-0.186 -1.056,-0.186c0,0 -0.194,0.565 -0.782,0.496c-0.903,-0.101 -1.064,-1.187 -1.064,-1.187c0,0 0.372,0.011 0.559,-0.472c0.16,-0.408 -0.111,-0.656 -0.554,-0.718c-0.265,-0.037 -0.603,0.377 -0.978,0.217c-0.371,-0.157 0.194,-0.889 -0.291,-1.166c-0.449,-0.252 -0.709,0.329 -0.709,0.329c0,0 0.688,0.711 1.585,2.003c0.714,1.035 1.721,2.264 1.721,2.264l-0.511,0.342c0,0 -0.695,-1.079 -1.793,-2.562c-0.935,-1.262 -1.668,-2.05 -1.668,-2.05c0,0 -0.025,-0.106 0.235,-0.376c0.333,-0.341 0.838,-0.809 1.447,-0.533c0.606,0.273 0.299,1.225 0.299,1.225c0,0 0.328,-0.36 0.873,-0.286c0.59,0.077 1.109,0.623 1.015,1.141c-0.132,0.732 -0.584,0.916 -0.584,0.916c0,0 -0.07,0.287 0.494,0.229c0.338,-0.038 0.568,-0.544 0.568,-0.544c0.026,-0.009 0.847,0.756 1.292,0.178c0.042,-0.06 0.069,-0.129 0.102,-0.189c-0.07,0.016 -0.141,0.027 -0.214,0.027c-0.563,0.004 -1.025,-0.454 -1.033,-1.03c-0.009,-0.575 0.441,-1.044 1.004,-1.05c0.21,-0.004 0.059,-0.016 0.348,0.037c-0.227,-0.121 -0.509,-0.362 -0.515,-0.774c-0.009,-0.484 0.506,-0.975 0.977,-0.98c0.473,-0.005 1.067,0.426 1.072,0.91c0.007,0.303 -0.161,0.541 -0.288,0.68c0.127,-0.139 0.319,-0.213 0.615,-0.217c0.563,-0.007 1.024,0.455 1.033,1.027c0.01,0.577 -0.442,1.047 -1.004,1.053c-0.047,0 -0.089,-0.006 -0.133,-0.013c0.008,0.009 0.018,0.018 0.024,0.023c0.198,0.174 0.449,0.247 0.663,0.287c0.689,0.125 0.77,-0.415 0.77,-0.415c0,0 0.333,0.311 0.659,0.203c0.534,-0.175 0.426,-0.505 0.426,-0.505c0,0 -0.498,0.074 -0.918,-0.544c-0.297,-0.433 -0.269,-0.919 0.236,-1.231c0.468,-0.289 1.098,-0.12 1.098,-0.12c0,0 -0.587,-0.684 -0.144,-1.184c0.444,-0.498 1.081,-0.271 1.524,-0.097c0.348,0.141 0.569,0.265 0.569,0.265c0,0 -0.466,0.78 -0.805,2.315c-0.44,1.993 -0.702,3.072 -0.702,3.072l-0.547,-0.153c0,0 0.308,-1.727 0.624,-2.996c0.346,-1.421 0.672,-1.895 0.672,-1.895c0,0 -0.544,-0.486 -0.849,-0.069c-0.331,0.449 0.43,0.798 0.157,1.093c-0.276,0.298 -0.769,-0.002 -0.999,0.14c-0.377,0.235 -0.342,0.384 -0.121,0.696c0.228,0.323 0.679,0.198 0.679,0.198c0,0 0.355,1.095 -0.425,1.556c-0.511,0.3 -0.986,-0.082 -0.986,-0.082c0,0 -0.159,0.494 -1.086,0.476Z"
        style="fill:#93560e;fill-rule:nonzero;"/><path
        d="M95.176,60.833c1.294,-0.134 2.157,-0.376 2.1,-0.719c-0.039,-0.221 -1.098,-0.292 -2.391,-0.156c-1.295,0.138 -2.319,0.427 -2.291,0.647c0.026,0.224 1.29,0.363 2.582,0.228Zm-3.568,-0.032c-0.062,-0.546 1.611,-1.183 3.733,-1.419c2.128,-0.238 3.898,0.014 3.964,0.561c0.06,0.546 -1.612,1.182 -3.738,1.419c-2.121,0.236 -3.896,-0.015 -3.959,-0.561Z"
        style="fill:#93560e;fill-rule:nonzero;"/><path
        d="M69.208,47.304c-1.726,1.912 -0.595,4.658 -0.988,7.086c-0.682,1.978 -2.759,3.224 -3.38,5.23c-0.154,1.166 -0.293,2.793 0.527,3.658c0.056,-0.154 -0.099,-0.241 -0.132,-0.364c-0.34,-2.378 0.401,-4.073 2.468,-6.093c3.15,-3.557 -0.535,-6.434 2.454,-9.117l-0.949,-0.4Z"
        style="fill:#93560e;fill-rule:nonzero;"/><path
        d="M76.551,69.757c1.436,-0.039 2.381,-0.223 3.803,-0.596c1.388,-0.418 2.51,-0.808 3.796,-1.258c2.781,-0.862 4.339,-1.522 7.245,-1.567l0.353,0c0.826,0.009 1.563,0.143 2.304,0.365c0.369,0.116 0.859,0.457 1.247,0.679c1.853,1.605 1.981,2.512 4.316,3.955c1.053,0.402 2.045,1.514 2.877,1.738c-0.344,-0.332 -0.71,-0.492 -1.452,-1.257c-1.101,-0.968 -2.991,-3.423 -5.039,-4.962c-1.118,-0.642 -2.324,-1.038 -3.642,-1.154c-2.55,-0.421 -5.497,0.314 -7.675,1.196c-2.34,0.768 -3.163,0.919 -5.637,1.324c-0.906,0.184 -1.576,0.078 -2.347,-0.129c-0.314,-2.519 -1.214,-2.024 -0.884,-4.998c0.974,-3.546 0.587,-6.595 -0.618,-9.376c0.279,-0.986 0.363,-2.427 -0.453,-3.231c-0.693,-0.687 -2.563,-0.85 -2.929,0.382c0.209,0.974 1.488,0.383 2.11,0.826c0.739,0.192 0.685,1.084 0.563,1.562c-0.176,1.443 -1.844,2.185 -2.939,2.457c0.419,0.84 2.091,0.295 2.63,-0.199c0.619,1.327 0.947,1.504 1.172,3.147c0.138,2.871 -0.691,2.742 -1.771,4.588c-0.494,0.987 -0.456,2.256 0.3,4.227c-0.209,-2.999 0.182,-3.179 1.019,-4.526c0,0 -0.299,1.228 -0.271,2.395c0.038,1.395 0.767,1.8 0.82,3.056c-0.248,1.106 -0.248,1.474 -0.967,2.373c-1.313,1.724 -3.629,1.532 -4.56,5.936c1.71,-2.516 2.102,-3.176 3.689,-4.076c2.128,-0.901 2.456,-1.606 2.94,-2.877Z"
        style="fill:#93560e;fill-rule:nonzero;"/><path
        d="M58.878,54.116c-0.199,-0.607 -0.376,-1.208 -1.022,-1.346c-0.654,-0.348 -1.25,1.289 -1.469,-0.02c-0.265,-0.758 0.622,-1.325 -0.217,-1.952c-0.691,-1.05 0.328,-1.293 0.04,-2.417c-0.055,-0.827 -0.191,-1.903 0.956,-1.953c1.734,-0.416 3.504,-0.426 5.148,0.091c0.471,-0.422 0.616,-0.648 0.686,-0.929c0,0 0.777,-0.092 1.288,0.118c0.51,0.209 1.087,0.528 1.087,0.528c-0.499,0.064 -1.352,0.154 -1.291,0.846c0.331,0.807 1.101,-0.327 3.162,1.01c0.156,0.172 0.455,0.28 0.523,0.796c-0.974,-0.435 -1.489,-0.28 -2.291,-0.644c-0.644,-0.209 -0.831,-0.229 -1.484,-0.116c-0.248,0.045 -1.26,0.774 -1.222,0.251c0,0 0,-0.264 -0.141,-0.807c-0.158,-0.49 -0.383,-0.444 -0.827,-0.591c-2.097,-0.531 -3.176,-0.353 -4.346,-0.147c-0.449,0.109 -0.659,0.767 -0.46,1.278c0.398,0.795 0.541,0.67 0.969,0.645c0.36,-0.208 0.564,-0.737 1.175,-0.784c0.452,0.027 0.825,0.008 0.962,0.495l0.007,0.275c-0.163,-0.362 -0.653,-0.202 -0.897,-0.088c-0.114,0.109 -0.204,0.226 -0.114,0.359c0.161,0.271 0.348,0.142 0.595,0.198c-0.215,0.377 -1.225,0.493 -1.886,0.418c-0.237,-0.031 -0.258,0.324 -0.38,0.388c-0.239,0.31 -0.089,0.597 0.01,0.929c1.01,1.215 2.714,1.306 4.022,2.158c0.34,0.176 0.622,0.762 0.72,1.035c-0.62,-0.289 -0.771,0.671 -0.765,0.854l0.275,-0.168c0.203,-0.074 0.73,-0.334 0.76,-0.372c0.345,0.328 0.224,0.855 0.318,1.275c0.142,-0.369 0.056,-0.765 0.266,-1.215c0.449,1.56 1.342,4.327 -0.936,7.895c-1.17,2.399 -1.028,2.898 -0.901,6.147c-1.589,-3.361 -0.386,-5.05 -0.053,-7.125c0.023,-0.184 0.023,-0.455 -0.224,-0.634c0.077,0.89 -0.113,1.461 -0.788,2.384c-1.093,1.347 -1.258,3.149 -0.65,4.472c0.516,1.501 0.928,2.096 0.756,3.658c-0.24,1.503 -0.63,2.402 -0.091,4.381c-1.215,-2.388 -0.834,-3.179 -0.773,-4.564c0.049,-1.167 -0.205,-2.32 -0.903,-3.227l0.417,0.354c-0.405,2.76 -4.181,3.028 -2.788,6.763c0.481,0.838 1.559,2.473 1.619,3.251c-0.801,-1.356 -1.772,-1.452 -2.453,-2.903c-1.812,-0.348 -3.253,0.975 -5.014,1.52c-1.006,0.287 -2.044,0.762 -3.753,-0.722c3.19,1.169 5.398,-0.921 7.43,-1.711c1.151,-0.511 0.678,-1.343 0.829,-2.07c0.371,-2.182 2.431,-2.089 3.05,-4.19c0.047,-1.767 -0.224,-2.848 0.318,-4.015c0.538,-1.17 1.383,-0.85 1.501,-2.337c0.505,-1.726 -2.048,-1.896 -1.55,-4.025c0.299,0.398 0.867,0.655 1.367,0.898c0.875,0.426 1.839,1.142 2.449,1.827c-0.068,-0.334 -0.735,-1.382 -1.078,-1.649l-0.868,-0.657c0.081,-0.34 0.486,-0.534 0.816,-0.767c-0.094,0.981 1.109,1.437 1.585,2.038c0.33,-1.355 -0.044,-2.815 -0.384,-4.029c0,0 -0.459,-0.062 -0.73,0.329c-0.39,-0.928 -0.123,-1.406 0.012,-2.082c0.011,-0.363 -0.311,-0.139 -0.493,-0.108c-0.327,0.182 -0.45,0.284 -0.45,0.284l-0.485,-0.813c-0.389,0.163 -0.83,0.63 -0.941,1.029Zm-0.387,-1.635c0.218,0.237 0.32,0.512 0.387,0.783c0.278,0.055 0.356,-0.407 0.569,-0.442l-0.956,-0.341Zm-1.34,-0.853c-0.145,0.339 -0.528,0.779 -0.275,1.11l0.591,-0.751c-0.124,-0.119 -0.251,-0.209 -0.316,-0.359Zm3.245,3.578c0.779,0.557 0.952,1.236 1.614,1.86c-0.31,-0.082 -2.179,-1.465 -3.19,-1.07c-1.432,0.131 -3.341,1.423 -4.6,0.078c-0.856,-0.362 -1.435,-1.82 -1.579,-2.703c0.8,1.355 2.214,2.723 4.041,2.37c0.957,-0.207 1.476,-0.335 2.304,-0.298c0.428,-0.009 1.08,0.047 1.605,0.521c-0.613,-0.609 -1.377,-1.059 -2.322,-1.059c-2.117,0.045 -4.319,0.988 -5.628,-1.534c1.217,0.949 3.74,1.044 5.837,1.011c0.704,0.086 1.437,0.312 1.918,0.824Z"
        style="fill:#93560e;fill-rule:nonzero;"/><path
        d="M73.545,52.661c0.106,0.424 -0.096,0.889 -0.331,1.262c-0.146,0.25 -0.419,0.285 -0.632,0.383c0.022,-0.368 0.806,-0.789 0.332,-1.264l-0.84,-0.65c0.326,-0.346 1.275,-0.37 1.471,0.269Z"
        style="fill:#93560e;fill-rule:nonzero;"/><path
        d="M59.738,58.031c-0.215,0.026 -0.396,0.026 -0.599,-0.116c-0.774,-0.349 0.09,-0.667 0.141,-1.066c0.282,0.267 0.235,0.819 0.458,1.182Z"
        style="fill:#93560e;fill-rule:nonzero;"/><path
        d="M62.919,66.639c0.041,1.554 -0.106,2.667 -0.414,3.575c-0.32,0.945 -0.4,1.2 -1.122,2.371c0.604,-1.449 0.806,-2.53 1.009,-4.196c0.153,-1.473 0.1,-3.619 0.694,-4.816l0.504,-1.439c-0.611,2.427 -0.613,3.5 -0.671,4.505Z"
        style="fill:#93560e;fill-rule:nonzero;"/><path
        d="M43.979,82.911c0.384,-0.477 0.621,-0.354 0.835,-0.428c0.266,0.268 0.184,0.581 0.596,0.776c0.602,0.297 1.44,-0.299 1.862,-0.588c0,0 1.154,0.76 1.812,0.76c0.66,0 0.9,-0.663 1.501,-0.663c0.6,0 0.958,0.748 0.958,0.748c0,0 0.602,-0.056 3.78,-0.57c3.147,-0.512 2.397,1.529 2.397,1.529c0,0 1.192,0.26 2.491,-1.14c0.958,-1.031 1.948,-2.455 2.216,-3.836c0.272,-1.381 0.33,-6.598 0.33,-6.598c0,0 -0.869,2.338 -0.987,3.692c-0.123,1.347 -0.362,2.966 -1.531,4.675c-0.258,0.377 -1.26,0.81 -1.26,0.81c0.1,0.015 -0.345,-0.784 -0.719,-1.08c-0.546,-0.427 -1.017,-0.48 -1.017,-0.48c0,0 -2.34,1.587 -3.211,1.53c-0.869,-0.062 0.06,-1.53 0.06,-1.53c0,0 -2.638,0.991 -3.987,1.38c-1.35,0.39 -1.606,-0.291 -1.606,-0.291c-0.667,0.232 -2.056,0.827 -2.878,0.537c-0.752,-0.426 -1.103,-0.831 -1.437,-0.38l-0.765,0.833c-0.742,-1.711 1.238,-2.337 1.816,-2.935l-1.264,-0.144c-0.526,-0.191 -0.761,-0.734 -0.663,-1.148c-0.705,0.018 -1.359,0.375 -1.911,0.46c0.104,-1.409 1.825,-0.799 2.503,-1.709c0.18,-0.246 0.658,-0.456 1.192,-0.152c0,0 -1.566,-0.997 -1.449,-1.436c0.405,-1.509 2.942,0.767 3.537,1.095c-0.188,-0.284 -0.412,-0.418 -0.637,-0.779c-1.061,-2.303 -3.799,-1.889 -4.767,0.044c0.131,0.227 1.012,-0.484 1.102,0.115c0.181,0.3 0.416,0.615 0.491,0.714c-0.577,0.33 -1.161,0.368 -1.593,0.568c-1.643,0.584 -1.687,2.764 -1.687,2.764c0,0 1.661,-0.305 2.204,-0.526c0.071,-0.02 0.147,-0.05 0.224,-0.081c0.248,0.857 1.037,0.272 0.114,1.889c-0.495,0.86 0.428,2.45 0.428,2.45c0,0 0.562,-0.246 0.92,-0.875Z"
        style="fill:#93560e;fill-rule:nonzero;"/><path
        d="M66.02,70.723c-0.407,0.651 -1.87,3.335 -2.026,5.754c-0.486,-2.189 0.046,-3.955 1.776,-6.902c2.475,-3.643 1.173,-7.192 1.33,-8.297c1.931,6.655 -0.35,8.201 -1.08,9.445Z"
        style="fill:#93560e;fill-rule:nonzero;"/><path
        d="M58.08,74.519c0.09,0.499 0.36,1.232 0.853,2.206c0.36,0.623 0.811,1.754 0.363,4.004c-0.498,-3.103 -0.812,-3.148 -1.336,-4.277c-0.438,-0.846 -0.819,-2.242 -0.554,-3.414c0.058,-0.356 0.568,-1.274 0.854,-1.484c-0.375,0.661 -0.456,2.076 -0.18,2.965Z"
        style="fill:#93560e;fill-rule:nonzero;"/><path
        d="M64.94,78.683c-0.856,1.256 -1.507,2.069 -2,2.495c0.447,-3.53 2.651,-4.048 3.596,-8.364c0,1.639 -0.738,4.807 -1.596,5.869Z"
        style="fill:#93560e;fill-rule:nonzero;"/><path
        d="M79.735,83.607c0.468,0.126 0.941,0.254 1.282,0.427c-0.555,-0.199 -1.742,-0.397 -2.126,-0.423c-0.286,0.026 -0.497,0.011 -0.693,-0.022c-1.624,-0.106 -3.455,-0.557 -4.705,-0.102c-2.043,0.859 -4.267,2.531 -4.669,3.679c-1.083,2.28 -3.781,0.391 -5.579,2.55c-0.473,-0.505 0.211,-1.318 1.22,-1.948c0.758,-0.387 2.63,0.173 3.342,-0.683c0.425,-0.454 -0.561,-1.516 -1.8,-1c-1.61,0.625 -1.622,1.451 -2.551,1.979c0.059,-1.128 1.139,-2.605 2.674,-2.749c0.82,-0.201 1.598,0.269 2.511,0.092c0.963,-0.641 1.506,-0.955 2.864,-1.643c0.83,-0.442 1.499,-0.569 2.519,-0.715c2.013,-0.21 3.809,0.335 5.711,0.558Z"
        style="fill:#93560e;fill-rule:nonzero;"/><path
        d="M60.452,58.388c0,0 -0.184,-0.018 -0.615,-0.162c-0.479,-0.155 -1.031,-0.407 -1.111,-0.432c-0.225,-0.066 -0.357,-0.114 -0.357,-0.114c0,0 0.096,-0.156 0.25,-0.159c0.154,-0.006 0.742,0.13 1.258,0.374c0.519,0.243 0.78,0.464 0.78,0.464l-0.205,0.029Z"
        style="fill:#93560e;fill-rule:nonzero;"/><path
        d="M74.217,49.118c0,0 -0.058,0.209 0.091,0.6c0.152,0.388 0.272,0.688 0.272,0.688c0,0 -1.921,0.061 -1.77,-0.209c0.149,-0.269 0.299,-0.508 0.21,-0.692c-0.088,-0.178 -0.33,-0.507 -0.33,-0.507l1.527,0.12Z"
        style="fill:#93560e;fill-rule:nonzero;"/><path
        d="M63.035,54.514c-0.219,-0.626 -0.391,-0.989 -1.68,-1.677c-1.289,-0.69 -2.339,-0.899 -2.789,-1.08c-0.449,-0.181 -1.169,-0.389 -1.079,-0.332c0.091,0.059 2.579,1.47 3.059,1.68c0.48,0.21 1.169,0.48 1.41,0.718c0.239,0.242 0.299,0.242 0.42,0.571c0.119,0.332 0,0.75 0.209,1.17c0.211,0.42 0.389,0.42 0.389,0.42c0,0 0.331,-0.689 0.061,-1.47Z"
        style="fill:#93560e;fill-rule:nonzero;"/><path
        d="M59.613,49.954c0.717,0 1.09,0.053 1.636,0.235c0.544,0.186 0.736,1.04 1.111,1.514c0,0 -1.325,-1.426 -2.386,-1.381c-0.182,0.006 -0.707,-0.368 -0.361,-0.368Z"
        style="fill:#93560e;fill-rule:nonzero;"/><path
        d="M58.952,50.727c0.39,-0.095 0.673,0.021 1.015,0.139c0.343,0.119 0.519,0.414 0.841,0.853l-0.313,-0.151c0,0 0.066,0.004 -0.386,-0.237c-0.513,-0.266 -0.674,-0.237 -0.878,-0.341c-0.204,-0.109 -0.467,-0.216 -0.279,-0.263Z"
        style="fill:#93560e;fill-rule:nonzero;"/><path
        d="M70.771,49.058c0,0 -0.854,0.767 -0.943,2.115c-0.092,1.348 0.224,2.967 0.446,4.495c0.228,1.53 0.048,2.657 -0.582,3.733c-0.479,0.826 -0.9,1.981 -0.854,3.196c0.055,1.486 1.176,2.932 1.176,2.932c0,0 -0.96,-1.876 -0.599,-3.63c0.359,-1.754 1.395,-2.786 1.528,-4.046c0.133,-1.262 -0.057,-2.494 -0.396,-3.983c-0.495,-2.158 -0.495,-3.554 0.224,-4.812Z"
        style="fill:#93560e;fill-rule:nonzero;"/><path
        d="M69.173,70.955c0,0 0.962,-1.53 0.991,-2.91c0.028,-1.377 -0.87,-2.759 -1.139,-4.198c-0.27,-1.438 -0.33,-1.676 -0.03,-2.728c0.299,-1.051 1.197,-1.59 1.197,-1.59c0,0 -0.717,1.38 -0.748,2.25c-0.029,0.87 -0.122,1.393 0.421,3.029c0.542,1.638 1.109,3.237 0.719,4.409c-0.392,1.165 -0.93,1.798 -1.32,2.308c-0.389,0.509 -0.629,0.537 -0.091,-0.57Z"
        style="fill:#93560e;fill-rule:nonzero;"/><path
        d="M66.554,81.442c-0.2,0.147 -0.443,0.309 -0.737,0.486c-0.25,0.15 -0.632,0.216 -0.632,0.216c0,0 0.354,-0.411 1.199,-1.596c1.351,-2.008 1.275,-4.112 1.743,-6.205c0.379,-1.536 1.617,-3.328 2.065,-4.142c0.452,-0.806 0.168,-3.416 0.168,-3.416c-0.09,4.411 -2.429,4.23 -3.017,7.707c-0.162,1.941 -0.839,3.987 -2.403,5.919c-1.194,1.643 -3.343,3.383 -5.482,4.218c2.46,0.477 4.141,-0.214 6.299,-0.302c0.508,0 1.498,0.033 2.157,0.179c0.45,0.211 0.6,-0.327 1.92,-1.019c0.96,-0.479 1.668,-0.795 2.522,-1.056c1.16,-0.287 2.09,-0.529 2.95,-0.395c-0.168,-0.098 3.491,-0.152 2.962,-0.504c-0.207,-0.82 -1.504,-0.094 -1.116,-0.565c-1.323,0.631 -1.554,0.167 -3.128,0.483c0,0 -1.258,0.148 -2.25,0.132c0,0 -0.655,-0.025 -1.1,-0.225c-0.869,-0.39 -0.778,-1.197 -0.778,-1.197c0,-0.45 -0.003,-0.739 0.058,-1.321c0.06,-0.57 -0.113,-1.549 -0.113,-1.549c0,0 -1.327,2.987 -3.287,4.152Z"
        style="fill:#93560e;fill-rule:nonzero;"/><path
        d="M95.902,72.048c0,0 -1.886,-2.203 -3.911,-2.7c-2.024,-0.492 -5.802,0.092 -8.094,1.262c-2.295,1.168 -3.193,2.832 -4.408,4.991c0,0 -0.542,0.759 -0.84,1.65c-0.391,1.174 -0.421,1.679 0.256,1.994c0.348,0.162 1.977,-0.632 1.977,-0.632c-0.377,-0.522 -1.724,-0.253 -1.724,-0.253c0,0 0.646,-0.869 1.32,-1.23c0.676,-0.356 1.575,-0.178 1.575,-0.178l-0.764,-0.544c0,0 -0.046,-0.536 0.719,-2.245c0.766,-1.708 1.528,-3.059 4.497,-3.822c2.969,-0.766 4.453,-0.946 6.253,-0.092c1.799,0.855 3.144,1.799 3.144,1.799Z"
        style="fill:#93560e;fill-rule:nonzero;"/><path
        d="M100.539,75.091c0,0 0.209,3.21 -0.721,4.709c-0.93,1.5 -3.176,3.328 -3.176,3.328c2.456,0.959 6.896,-0.36 7.613,-2.817c0.694,-2.356 -0.379,-4.396 -1.438,-5.042c-1.231,-0.75 -2.278,-0.178 -2.278,-0.178Zm-6.508,8.425c0,0 -0.959,-0.595 -2.099,-1.048c-1.008,-0.397 -2.366,-0.829 -2.366,-0.829c0,0 3.237,-0.564 5.034,-0.97c1.126,-0.258 1.653,-0.407 2.341,-0.751c0.72,-0.359 0.987,-0.722 0.987,-0.722c0,0 0.406,-0.176 0.991,-1.737c0.468,-1.247 -0.185,-3.439 0.089,-3.806c0.539,-0.722 4.053,0.197 5.576,2.578c1.126,1.755 0.138,4.631 0.138,4.631c0,0 1.002,-0.39 1.125,-3.014c0.138,-3.056 -3.355,-4.775 -3.355,-4.775c0,0 2.125,0.43 3.443,2.649c1.32,2.218 0.509,4.947 -1.351,7.344c-1.857,2.402 -6.024,2.341 -7.704,1.98c0,0 0.836,0.949 1.02,1.709c0.391,1.62 -0.152,2.55 -0.78,2.91c-0.542,0.308 -3.569,0.51 -4.527,0.539c-0.962,0.03 -1.349,0 -2.759,0.119c-1.409,0.123 -2.936,-0.179 -3.596,-0.179c-0.363,0 -0.663,0.121 -1.562,0.331c-1.405,0.327 -1.381,-0.029 -1.381,-0.029c0,0 0.241,-0.691 -1.558,-0.424c-1.245,0.19 -2.218,0.182 -2.218,0.182c0,0 -0.989,0.598 -2.759,0.271c-1.769,-0.331 -1.918,-1.441 -1.918,-1.441c0,0 1.35,0.631 2.787,0.601c1.44,-0.033 2.159,-0.841 2.159,-0.841c0,0 0.38,0.574 1.829,0.086c0.812,-0.264 1.17,-0.565 1.17,-0.565c0,0 2.836,0.178 3.118,0.209c0.991,0.122 3.149,0.297 3.149,0.297c0,0 0.239,0 2.038,0.121c1.234,0.084 2.176,0.166 2.247,-0.148c0.071,-0.292 -0.895,-0.664 -0.895,-0.664c0,0 1.71,0.216 2.548,0.245c0.617,0.023 1.137,-0.09 1.467,-0.302c0.329,-0.207 0.389,-1.197 0.033,-1.588c-0.47,-0.506 -0.314,-0.467 -0.945,-0.763c-1.531,-0.719 -1.307,-1.037 -1.307,-1.037c0,0 -0.43,-0.579 0.54,-0.131c0.497,0.222 -0.091,-0.631 -0.091,-0.631c0,0 -0.223,-0.226 -0.658,-0.407Z"
        style="fill:#93560e;fill-rule:nonzero;"/><path
        d="M87.269,80.862c0,0 0.272,0.136 0.81,0.272c0.4,0.099 2.16,0.764 2.16,0.764c0,0 0.719,0.088 1.106,-0.327c0.572,-0.623 -1.551,0.053 -1.453,-0.632c0.032,-0.21 -0.374,-0.477 -0.374,-0.477c0,0 -0.628,-0.138 -1.123,-0.096c-0.989,0.096 -1.126,0.496 -1.126,0.496Z"
        style="fill:#93560e;fill-rule:nonzero;"/><path
        d="M72.047,81.628c0,0 1.746,-0.061 3.483,-0.537c1.742,-0.483 2.07,-0.902 2.833,-1.125c0.578,-0.171 1.749,-0.1 1.749,-0.1c0,0 -0.324,0.114 -0.413,0.596c-0.092,0.477 0.089,0.838 0.089,0.838c0,0 0.628,-0.244 1.109,-0.151c0.482,0.091 0.617,0.391 0.617,0.391c0,0 -0.497,0.781 0.165,0.986c0.659,0.213 1.485,0.213 2.847,0.677c1.364,0.462 2.189,0.599 3.24,0.809c1.048,0.211 2.201,0.583 2.201,0.583c0,0 0.165,0.154 -0.224,0.361c-0.388,0.211 1.035,0.628 1.035,0.628c0,0 0.134,0.095 -0.854,0c-0.832,-0.075 -0.962,-0.024 -2.009,-0.236c-1.621,-0.334 -2.127,-0.334 -2.127,-0.334c0,0 -0.661,-0.12 -1.502,-0.147c-0.451,-0.015 -1.948,-0.091 -3.507,-0.272c-1.559,-0.18 -2.759,-0.45 -3.627,-0.777c-0.871,-0.331 -1.921,0 -1.921,0c0,0 -0.389,-0.419 -1.198,-0.09c-0.811,0.329 -1.155,1.183 -1.155,1.183c0,0 0.407,-0.226 0.824,-0.226c0.42,0 0.688,0.124 0.688,0.124c0,0 0.239,0.449 -0.149,0.806c-0.389,0.362 -1.079,0.663 -1.079,0.663c0,0 -0.029,-0.213 -1.678,-0.213c-1.65,0 -1.83,-0.24 -2.399,0.571c-0.571,0.807 -0.301,-1.321 -0.301,-1.321c0,0 0.389,-0.63 2.608,-1.677c2.219,-1.049 3.988,-0.93 4.828,-0.961c0.841,-0.028 1.921,0.062 3,0.244c0.68,0.111 2.397,0.717 2.397,0.717c0,0 -0.795,-0.698 -2.337,-1.258c-1.32,-0.482 -4.856,-0.452 -6.597,-0.059c-1.74,0.387 -2.4,0.026 -2.222,-0.243c0.183,-0.271 1.586,-0.45 1.586,-0.45Z"
        style="fill:#93560e;fill-rule:nonzero;"/><path
        d="M72.954,84.867c0,0 0.777,-0.297 1.317,-0.091c0.214,0.08 0.3,0.118 0.449,0.301c0.151,0.181 0.511,0.479 0.511,0.479c0,0 -1.888,0.153 -1.5,1.052c0.391,0.896 1.41,0.747 1.41,0.747c0,0 -0.54,0.242 -0.688,0.809c-0.152,0.571 0.389,0.87 0.389,0.87l1.526,0.601l-0.928,0.325c0,0 -0.63,-0.268 -0.779,0.125c-0.151,0.39 -0.208,0.785 -0.208,0.785c0,0 -0.633,-0.636 -0.722,-1.474c-0.09,-0.839 0.54,-1.469 0.54,-1.469c0,0 -0.475,-0.407 -0.866,0.035c-0.392,0.442 -0.483,0.929 -0.483,0.929c0,0 -0.66,-0.606 -0.777,-1.448c-0.121,-0.835 0.538,-1.438 0.538,-1.438l0.271,-1.138Z"
        style="fill:#93560e;fill-rule:nonzero;"/><path
        d="M57.72,66.968c0,0 -0.278,-1.186 0.149,-2.22c0.428,-1.036 1.291,-1.798 1.291,-1.798c-0.937,0.531 -1.361,0.027 -3.745,-0.671c-2.387,-0.698 -3.63,-0.488 -4.575,-0.553c-0.945,-0.068 -3.15,-1.371 -3.485,-1.663c-0.338,-0.293 -0.273,-0.561 -0.488,-1.254c-0.15,-0.477 -0.808,-0.689 -1.26,-0.598c-0.451,0.088 -0.599,0.419 -0.599,0.419c0,0 -0.247,0.06 -0.72,0.15c-0.473,0.089 -0.752,0.688 -0.752,0.688c0,0 0.423,-0.193 0.804,-0.146c0.383,0.045 0.678,0.36 0.678,0.36c0.032,1.048 -0.088,1.08 0.334,1.797c0.559,0.956 1.755,2.008 1.755,2.008c1.178,0.791 2.758,1.44 3.028,1.56c0.183,0.083 1.135,0.539 1.979,0.841c0.931,0.328 1.709,1.347 1.709,1.347c0,0 0.009,-1.032 1.437,-0.567c1.112,0.356 2.46,0.3 2.46,0.3Zm-14.992,-4.47c-0.481,0.128 -1.191,0.745 -1.098,1.496c0.237,0.657 0.396,0.822 1.181,0.926c0.383,-0.091 0.676,-0.161 0.696,-0.425c0,0 -0.181,-0.169 -0.027,-0.317c0.479,-0.419 0.929,-0.318 1.347,-0.331c-0.63,-0.63 -0.938,-0.608 -1.23,-0.81c-0.777,-0.69 -0.257,-1.061 0.09,-1.346c0.23,-0.142 1.057,-0.061 1.467,0.124l-1.346,-1.597c-0.608,-0.38 -1.614,-0.527 -1.908,0.34c-0.056,0.222 -0.095,0.849 0.17,1.012c0.447,0.479 0.688,0.601 0.658,0.928Zm1.325,-5.368c-0.618,-0.261 -1.049,-0.156 -1.558,0.257c-0.172,0.341 -0.168,1.042 0.233,1.182c1.289,0.219 1.095,-0.823 2.385,-0.672c-0.371,-0.173 -0.746,-0.44 -1.06,-0.767Zm15.061,7.316c-0.495,3.285 -1.664,4.771 -1.979,5.895c0,0 -0.269,-0.618 -0.944,-1.067c-0.622,-0.414 -1.708,0.24 -1.708,0.24c0,0 -0.991,-1.29 -3.238,-2.234c-1.84,-0.77 -1.619,0.824 -1.619,0.824c0,0 -1.501,-1.647 -2.101,-2.308c-0.778,-0.854 -1.588,-0.495 -2.31,-0.267c-0.717,0.222 -2.832,-0.095 -2.832,-0.095c0,0 -1.619,-0.133 -1.619,-1.659c0,-1.083 1.172,-1.485 1.172,-1.485c0,0 -0.993,-0.588 -0.902,-1.712c0.089,-1.124 1.305,-1.078 1.305,-1.078c0,0 -0.901,-0.72 -0.856,-1.305c0.046,-0.583 0.991,-1.531 1.667,-1.618c0.671,-0.092 3.067,1.211 4.181,1.483c1.012,0.248 0.552,1.555 2.353,2.287c0.764,0.311 2.101,0.638 3.765,0.638c1.665,0 2.246,0.63 4.136,1.079c1.89,0.45 2.068,-0.315 2.068,-0.315c0,0 -0.36,1.524 -0.539,2.697Z"
        style="fill:#93560e;fill-rule:nonzero;"/><path
        d="M72.584,55.745c0,0 0.342,1.793 0.024,2.608c-0.606,1.55 -1.489,1.882 -1.755,3.364c-0.315,1.762 0.24,3.783 0.539,4.797c0.301,1.024 0.632,2.243 0.274,3.084c-0.363,0.838 -1.052,1.713 -1.531,2.735c-0.481,1.021 -0.79,2.346 -0.79,2.346c0,0 0.728,-1.626 1.208,-2.346c0.601,-0.897 1.504,-1.979 1.832,-2.908c0.784,-2.248 -0.394,-3.688 -0.632,-4.979c-0.296,-1.592 0.124,-2.933 0.992,-4.014c0.836,-1.052 1.048,-1.863 1.227,-2.881c0.216,-1.222 0.208,-2.278 0.208,-2.278l-1.596,0.472Z"
        style="fill:#93560e;fill-rule:nonzero;"/><path
        d="M35.81,101.991c0,0 35.914,-0.909 45.09,-1.743c2.473,-0.226 6.836,-0.36 9.552,-0.63c2.716,-0.268 6.743,-0.449 6.743,-0.449c0,0 -1.252,0.587 -4.318,0.856c-3.492,0.307 -10.025,1.098 -13.042,1.098c-3.682,0 -15.953,0.89 -19.63,1.069c-15.114,0.74 -24.395,-0.201 -24.395,-0.201Z"
        style="fill:#93560e;fill-rule:nonzero;"/><path
        d="M40.943,56.102c0.291,0 0.526,-0.219 0.526,-0.493c0,-0.272 -0.235,-0.493 -0.526,-0.493c-0.29,0 -0.523,0.221 -0.523,0.493c0,0.274 0.233,0.493 0.523,0.493Zm15.879,-41.878l-9.222,41.049c0,0 -0.045,0.514 0.224,0.628c0.271,0.113 0.466,0.158 0.765,0.337c0.338,0.204 0.61,0.475 0.61,0.475c0,0 -0.7,-0.025 -1.509,-0.294c-0.759,-0.256 -0.897,-0.741 -0.897,-0.741l9.367,-41.332c0.301,-1.77 0.93,-5.491 1.023,-6.418c0.087,-0.931 -0.122,-0.72 -0.482,-0.273c-0.361,0.452 -1.5,3.299 -2.04,5.727c0,0 -8.994,37.723 -9.174,38.773c-0.182,1.049 -0.067,1.544 -0.562,2.374c-0.512,0.862 -0.974,1.029 -1.577,0.969c-0.447,-0.047 -1.068,-0.068 -1.189,0.289c-0.081,0.25 0.298,0.414 0.809,0.475c0.512,0.062 1.161,0.045 1.732,-0.113c0.652,-0.18 0.921,-0.269 0.921,-0.269c0,0 0.17,0.36 0.338,0.516c0.315,0.292 0.605,0.541 0.969,0.698c0.318,0.14 1.227,0.396 1.795,0.367c0.572,-0.028 0.693,0.3 0.782,0.538c0.09,0.243 0.548,0.502 1.139,0.212c0.398,-0.195 0.442,-0.937 0.058,-1.274c-0.456,-0.407 -1.107,0.043 -1.228,-0.166c-0.119,-0.209 0.465,-0.822 1.342,-0.509c0.743,0.263 1.182,0.933 0.852,1.909c-0.335,1.016 -1.445,0.999 -2.042,0.909c-0.602,-0.089 -0.931,-0.539 -1.141,-0.6c-0.209,-0.058 -0.661,-0.091 -0.661,-0.091c0,0 -3.956,-1.587 -4.288,-1.65c-0.326,-0.057 -1.169,0.092 -1.466,0.15c-0.302,0.062 -0.511,0.394 -1.26,0.272c-0.415,-0.067 -1.763,-0.587 -1.35,-1.82c0.3,-0.9 0.921,-1.283 1.866,-1.125c0.484,0.081 0.518,0.536 0.946,0.606c0.557,0.088 0.966,0.03 1.147,-0.54c0.178,-0.569 9.835,-39.041 9.835,-39.041c1.377,-4.554 2.428,-7.344 3.356,-8.512c0.929,-1.171 1.351,-2.186 1.199,0.416c-0.149,2.582 -0.408,4.354 -0.987,7.079Z"
        style="fill:#93560e;fill-rule:nonzero;"/><path
        d="M61.678,77.402c0,0 0.182,-2.971 1.349,-6.432c0.484,-1.43 1.499,-3.102 1.709,-4.544c0.241,-1.651 -0.226,-3.69 -0.134,-4.677c0.09,-0.987 0.179,-1.935 0.179,-1.935l0.63,0c0,0 -0.269,2.25 -0.09,3.194c0.181,0.943 0.479,2.679 0.136,3.914c-0.541,1.934 -1.596,3.233 -2.01,4.842c-0.507,1.979 -0.839,4.225 -0.869,6.327l-0.9,-0.689Z"
        style="fill:#93560e;fill-rule:nonzero;"/><path
        d="M39.078,55.847c0.335,0 0.604,-0.26 0.604,-0.574c0,-0.317 -0.269,-0.574 -0.604,-0.574c-0.334,0 -0.605,0.257 -0.605,0.574c0,0.314 0.271,0.574 0.605,0.574Z"
        style="fill:#93560e;fill-rule:nonzero;"/><path
        d="M43.463,69.169c0.439,0 0.795,-0.342 0.795,-0.765c0,-0.419 -0.356,-0.763 -0.795,-0.763c-0.44,0 -0.793,0.344 -0.793,0.763c0,0.423 0.353,0.765 0.793,0.765Z"
        style="fill:#93560e;fill-rule:nonzero;"/><path
        d="M42.564,65.213c0,0 0.224,-0.158 -0.024,0.11c-0.247,0.272 -0.712,0.805 -0.591,1.403c0.121,0.599 0.591,1.319 1.581,1.433c0.988,0.111 1.801,-0.316 2.002,-1.215c0.201,-0.901 -0.09,-1.237 -0.337,-1.486c-0.249,-0.245 -1.258,0.093 -1.258,0.093c0.426,0.29 0.628,0.716 0.581,1.146c-0.042,0.425 -0.449,0.653 -0.831,0.583c-0.381,-0.068 -0.799,-0.373 -0.652,-0.879c0.18,-0.605 0.811,-0.85 0.811,-0.85c0,0 -0.025,-0.272 0.179,-0.407c0.202,-0.135 -1.461,0.069 -1.461,0.069Z"
        style="fill:#93560e;fill-rule:nonzero;"/><path
        d="M52.15,58.988c0.45,0 0.816,-0.375 0.816,-0.837c0,-0.461 -0.366,-0.835 -0.816,-0.835c-0.447,0 -0.815,0.374 -0.815,0.835c0,0.462 0.368,0.837 0.815,0.837Z"
        style="fill:#93560e;fill-rule:nonzero;"/><path
        d="M48.151,83.668c0,0 0.971,2.093 1.93,3.348c0.961,1.264 1.62,2.221 2.22,3.243c0.601,1.017 2.407,3.817 3.845,5.736c1.439,1.92 3.997,4.798 3.997,4.798c0,0 -3.344,-5.262 -4.366,-6.64c-1.018,-1.377 -1.979,-2.998 -2.939,-4.26c-0.958,-1.255 -4.086,-5.687 -4.687,-6.225Z"
        style="fill:#93560e;fill-rule:nonzero;"/><path
        d="M56.663,83.57c0,0 3.957,4.798 5.938,7.136c1.977,2.338 2.998,4.197 3.958,5.336c0.958,1.139 3.755,4.386 3.755,4.386c0,0 -1.356,-3.063 -3.036,-4.861c-1.536,-1.648 -2.818,-3.72 -4.078,-5.22c-1.26,-1.5 -3.178,-4.077 -4.018,-4.799c-0.841,-0.717 -2.101,-2.039 -2.519,-1.978Z"
        style="fill:#93560e;fill-rule:nonzero;"/><path
        d="M69.264,87.385c0,0 4.924,6.126 5.764,6.965c0.841,0.842 3.48,4.557 3.48,4.557c0,0 2.869,2.871 0.981,0.17c-0.46,-0.654 -2.909,-3.775 -3.987,-5.155c-1.078,-1.38 -2.34,-2.82 -3.357,-4.021c-1.127,-1.322 -2.701,-2.277 -2.881,-2.516Z"
        style="fill:#93560e;fill-rule:nonzero;"/><path
        d="M81.356,90.159c0,0 0.78,1.5 1.619,2.278c0.837,0.783 2.458,2.641 3,3.3c0.54,0.658 3.721,3.391 3.721,3.391c0,0 -1.264,-1.772 -2.165,-2.672c-0.899,-0.899 -1.858,-1.858 -2.577,-2.701c-0.72,-0.84 -3.117,-3.234 -3.598,-3.596Z"
        style="fill:#93560e;fill-rule:nonzero;"/><path
        d="M90.121,89.854c0,0 2.443,2.6 3.646,3.983c1.203,1.388 4.007,3.724 4.007,3.724c0,0 -0.598,-1.353 -1.475,-2.15c-0.876,-0.803 -2.581,-2.648 -3.279,-3.516c-0.697,-0.869 -1.752,-1.912 -1.752,-1.912l-1.147,-0.129Z"
        style="fill:#93560e;fill-rule:nonzero;"/><path
        d="M50.387,96.065c0,0 3.841,-0.406 5.576,-0.493c1.735,-0.091 7.811,-0.181 10.068,-0.181c2.255,0 11.282,-0.719 14.405,-0.809c3.127,-0.087 8.246,-0.72 9.462,-0.72c1.211,0 11.794,-0.234 11.794,-0.234c0,0 -1.637,0.502 -4.916,0.702c-0.699,0.044 -7.487,0.61 -8.528,0.61c-1.041,0 -4.101,0.071 -4.101,0.071c0,0 -2.986,0.291 -4.491,0.199c-1.506,-0.086 -4.398,0.347 -4.398,0.347c0,0 -1.418,0.015 -3.238,0.193c-1.825,0.181 -5.123,0 -5.47,0.093c-0.345,0.088 -2.887,0.365 -5.112,0.394c-2.228,0.033 -4.233,-0.037 -4.491,-0.127c-0.26,-0.09 -2.026,0.09 -3.067,0.09c-1.043,0 -3.493,-0.135 -3.493,-0.135Z"
        style="fill:#93560e;fill-rule:nonzero;"/><path
        d="M72.593,89.305l-5.878,0c-1.019,0 -4.541,0.284 -4.541,0.284c0,0 -3.134,-0.106 -4.752,-0.106c-1.621,0 -8.788,0.418 -8.788,0.418c0,0 2.339,0.274 8.816,0.093c1.577,-0.042 4.782,0 5.444,0c0.657,0 3.635,-0.034 4.54,-0.093c5.083,-0.312 5.159,-0.596 5.159,-0.596Z"
        style="fill:#93560e;fill-rule:nonzero;"/><path
        d="M60.981,84.753c0,0 -4.925,0.068 -6.904,0.158c-1.979,0.092 -5.847,0.092 -5.847,0.092c0,0 1.17,-0.293 3.06,-0.382c1.887,-0.093 3.595,-0.028 4.675,-0.093c1.891,-0.113 5.016,0.225 5.016,0.225Z"
        style="fill:#93560e;fill-rule:nonzero;"/><path
        d="M29.343,67.737c-0.085,-0.029 -0.172,-0.019 -0.25,0.028l-0.091,0.011c-0.04,0.018 -0.075,0.055 -0.085,0.098l-0.015,0.063c-0.156,0.252 -0.253,0.607 -0.036,0.853c0.223,0.255 0.672,0.23 0.658,0.706l-0.01,0.06l0.035,-0.185l-0.028,0.063c-0.042,0.08 -0.08,0.164 -0.121,0.247l-0.037,0.142c-0.033,0.086 -0.026,0.185 0.021,0.274l0.019,0.029c0.195,0.453 0.671,0.656 1.107,0.822c-0.129,0.228 -0.285,0.445 -0.324,0.715l-0.01,0.129c-0.004,0.081 0.018,0.155 0.059,0.222l0.048,0.069c0.14,0.31 0.491,0.43 0.748,0.633c0.076,0.06 0.024,0.173 -0.063,0.328c-0.223,0.384 -0.039,0.83 0.3,1.096c0.219,0.169 0.506,0.238 0.619,0.482c0.164,0.35 -0.13,0.697 -0.088,1.08c0.061,0.515 0.46,0.956 1.001,0.956c0.038,0 0.104,0.06 0.097,0.077c-0.072,0.3 -0.304,0.535 -0.263,0.867c0.062,0.524 0.522,0.684 0.865,0.945c-0.066,0.131 0.076,0.272 -0.102,0.397c-0.131,0.606 0.309,1.282 0.978,1.328c0.06,0.004 0.142,0.109 0.268,0.116c0.059,0.029 0.12,0.007 0.151,-0.048c0.027,-0.055 0.004,-0.12 -0.053,-0.148c-0.246,-0.303 -0.606,-0.539 -0.653,-0.96c0.293,-0.593 0.099,-1.37 -0.593,-1.6c-0.026,-0.01 -0.058,-0.085 -0.044,-0.114c0.167,-0.394 0.324,-0.828 0.108,-1.226c-0.162,-0.295 -0.496,-0.443 -0.848,-0.499c-0.022,-0.004 -0.046,-0.116 -0.039,-0.187c0.044,-0.367 0.166,-0.697 0.079,-1.074c-0.112,-0.516 -0.527,-0.801 -0.952,-1.011c-0.025,-0.012 -0.075,0.019 -0.117,0.034c0.379,-0.666 0.13,-1.58 -0.66,-1.777l-0.151,-0.183l0.067,0.218l0.022,-0.136c0.167,-0.415 0.336,-0.934 -0.104,-1.288c-0.245,-0.201 -0.573,-0.201 -0.807,-0.395l-0.113,-0.218l0.037,0.207l0.046,-0.131c0,0.008 -0.004,0.011 -0.004,0.021l0.099,-0.192c0.029,-0.053 0.042,-0.108 0.041,-0.168l-0.012,-0.147c-0.06,-0.469 -0.443,-0.781 -0.911,-0.877c-0.135,-0.029 -0.119,-0.228 -0.09,-0.356l0.052,-0.185l-0.052,0.074l0.116,-0.058c-0.109,-0.157 0.06,-0.109 0.109,-0.149c0.017,-0.008 0.028,-0.026 0.023,-0.05c-0.006,-0.018 -0.023,-0.032 -0.047,-0.028Z"
        style="fill:#93560e;fill-rule:nonzero;"/><path
        d="M33.362,66.927c-0.086,-0.031 -0.074,0.07 -0.152,0.114l-0.091,0.013c-0.039,0.021 -0.076,0.057 -0.084,0.097l-0.015,0.067c-0.161,0.254 -0.255,0.605 -0.038,0.851c0.225,0.252 0.577,0.141 0.56,0.614l-0.012,0.06l0.036,-0.183l-0.026,0.065c-0.045,0.081 -0.082,0.165 -0.122,0.244l-0.038,0.144c-0.032,0.089 -0.026,0.187 0.022,0.273l0.018,0.029c0.198,0.456 0.673,0.655 1.108,0.821c-0.129,0.232 -0.286,0.447 -0.324,0.719l-0.01,0.128c-0.004,0.082 0.018,0.156 0.061,0.22l0.048,0.069c0.136,0.311 0.488,0.432 0.745,0.635c0.075,0.059 0.022,0.176 -0.065,0.328c-0.22,0.385 -0.036,0.828 0.308,1.094c0.212,0.172 0.499,0.242 0.615,0.486c0.16,0.348 -0.131,0.692 -0.089,1.077c0.06,0.517 0.46,0.957 0.999,0.957c0.038,0 0.109,0.055 0.099,0.078c-0.076,0.296 -0.303,0.533 -0.262,0.867c0.06,0.521 0.519,0.681 0.866,0.946c-0.068,0.132 0.074,0.271 -0.106,0.394c-0.126,0.61 0.311,1.284 0.978,1.328c0.061,0.004 0.142,0.106 0.272,0.117c0.054,0.029 0.118,0.008 0.148,-0.051c0.025,-0.052 0.005,-0.116 -0.051,-0.143c-0.247,-0.305 -0.609,-0.54 -0.654,-0.962c0.295,-0.592 0.1,-1.371 -0.59,-1.598c-0.031,-0.011 -0.062,-0.09 -0.047,-0.117c0.168,-0.393 0.323,-0.823 0.105,-1.227c-0.161,-0.297 -0.495,-0.442 -0.841,-0.497c-0.027,-0.006 -0.052,-0.117 -0.043,-0.182c0.046,-0.371 0.164,-0.702 0.079,-1.08c-0.111,-0.514 -0.528,-0.801 -0.952,-1.01c-0.027,-0.01 -0.075,0.021 -0.116,0.036c0.378,-0.665 0.128,-1.579 -0.659,-1.778l-0.15,-0.184l0.063,0.217l0.023,-0.133c0.168,-0.42 0.336,-0.937 -0.105,-1.29c-0.244,-0.198 -0.57,-0.198 -0.806,-0.397l-0.112,-0.214l0.036,0.206l0.045,-0.13c0,0.005 -0.003,0.009 -0.003,0.017l0.102,-0.193c0.025,-0.052 0.041,-0.108 0.037,-0.169l-0.012,-0.144c-0.061,-0.467 -0.342,-0.692 -0.81,-0.791c-0.139,-0.026 -0.122,-0.224 -0.092,-0.352l0.051,-0.188l-0.051,0.075l0.119,-0.059c-0.112,-0.158 0.057,-0.108 0.104,-0.148c0.021,-0.01 0.032,-0.03 0.028,-0.052c-0.007,-0.019 -0.125,-0.118 -0.147,-0.114Z"
        style="fill:#93560e;fill-rule:nonzero;"/><path
        d="M37.052,66.459c-0.46,0.524 -0.187,1.396 0.459,1.616c0.257,0.285 -0.042,0.377 -0.13,0.668l-0.016,0.07c0,0.056 0.016,0.118 0.043,0.167l0.018,0.031c0.085,0.337 0.335,0.609 0.679,0.743l0.114,0.005l-0.098,-0.081l-0.007,-0.021c0.205,0.116 0.469,0.337 0.357,0.544c-0.33,0.619 -0.027,1.305 0.551,1.575l0.06,0.028l-0.172,-0.151l0.155,0.17c0.092,0.026 0.159,0.1 0.168,0.216c0.018,0.136 -0.043,0.257 -0.111,0.407c-0.265,0.598 0.277,1.14 0.783,1.478c0.079,0.051 0.121,0.143 0.101,0.239c-0.092,0.529 -0.347,1.113 0.16,1.486c0.333,0.252 0.553,0.516 0.704,0.883c0.007,0.1 0.088,0.176 0.186,0.17c0.098,-0.008 0.175,-0.088 0.17,-0.188c0.146,-0.354 0.117,-0.819 -0.165,-1.097c-0.165,-0.164 -0.345,-0.289 -0.587,-0.397c-0.067,-0.029 -0.118,-0.232 -0.077,-0.347c0.167,-0.467 0.189,-1.024 -0.145,-1.397c-0.188,-0.211 -0.479,-0.289 -0.626,-0.532c-0.242,-0.396 0.085,-0.808 0.044,-1.23c-0.007,-0.115 -0.057,-0.212 -0.128,-0.298l0.049,0.044c-0.041,-0.068 -0.096,-0.121 -0.163,-0.156l-0.189,-0.101c-0.26,-0.094 -0.495,-0.283 -0.563,-0.553c-0.096,-0.385 0.231,-0.76 0.035,-1.148l-0.015,-0.098c-0.054,-0.065 -0.12,-0.106 -0.198,-0.123l-0.103,-0.053c0.027,-0.004 0.049,-0.014 0.076,-0.015c-0.1,-0.092 -0.265,-0.069 -0.337,-0.201l-0.163,-0.163l0.047,0.164l0,-0.132c-0.084,0.014 -0.101,-0.071 -0.091,-0.1c0.172,-0.529 0.081,-0.917 -0.453,-1.213c-0.264,-0.146 -0.192,-0.504 -0.086,-0.755c0.041,-0.099 0,-0.202 -0.092,-0.246c-0.093,-0.043 -0.203,0 -0.244,0.092Z"
        style="fill:#93560e;fill-rule:nonzero;"/><path
        d="M25.583,68.433c-0.459,0.519 -0.185,1.39 0.459,1.615c0.259,0.281 -0.012,0.605 -0.101,0.9l-0.014,0.069c0,0.058 0.014,0.119 0.044,0.167l0.014,0.028c0.087,0.342 0.338,0.611 0.681,0.742l0.112,0.008l-0.095,-0.083l-0.009,-0.019c0.207,0.115 0.47,0.338 0.357,0.551c-0.33,0.612 -0.026,1.296 0.55,1.568l0.062,0.03l-0.169,-0.151l0.152,0.166c0.09,0.032 0.158,0.099 0.171,0.218c0.015,0.136 -0.047,0.259 -0.115,0.405c-0.264,0.598 0.278,1.142 0.784,1.479c0.079,0.053 0.121,0.144 0.102,0.24c-0.094,0.529 -0.348,1.111 0.158,1.489c0.332,0.253 0.556,0.515 0.704,0.886c0.009,0.094 0.091,0.17 0.188,0.162c0.098,-0.004 0.173,-0.088 0.17,-0.183c0.145,-0.357 0.117,-0.823 -0.168,-1.098c-0.163,-0.163 -0.342,-0.289 -0.583,-0.399c-0.069,-0.029 -0.12,-0.23 -0.076,-0.344c0.166,-0.471 0.188,-1.027 -0.148,-1.401c-0.189,-0.209 -0.477,-0.282 -0.628,-0.531c-0.24,-0.394 0.085,-0.807 0.046,-1.232c-0.009,-0.111 -0.057,-0.21 -0.128,-0.292l0.05,0.039c-0.043,-0.068 -0.097,-0.122 -0.165,-0.158l-0.188,-0.096c-0.259,-0.093 -0.495,-0.287 -0.563,-0.552c-0.096,-0.386 0.233,-0.763 0.035,-1.15l-0.016,-0.098c-0.055,-0.064 -0.119,-0.106 -0.197,-0.125l-0.102,-0.053c0.026,-0.004 0.048,-0.008 0.074,-0.014c-0.099,-0.09 -0.264,-0.07 -0.337,-0.201l-0.162,-0.16l0.045,0.162l0,-0.132c-0.081,0.014 -0.099,-0.074 -0.088,-0.099c0.171,-0.529 0.051,-1.154 -0.484,-1.448c-0.263,-0.148 -0.191,-0.499 -0.082,-0.757c0.039,-0.092 0,-0.202 -0.094,-0.243c-0.094,-0.04 -0.204,0 -0.246,0.095Z"
        style="fill:#93560e;fill-rule:nonzero;"/><path
        d="M29.499,78.546c-0.099,0.353 0.047,0.703 0.378,0.916c0.138,0.088 0.179,0.314 0.212,0.504c-0.03,-0.041 -0.062,-0.092 -0.092,-0.137c-0.017,0.077 -0.04,0.154 -0.061,0.228l-0.048,0.135c-0.021,0.061 -0.021,0.122 -0.004,0.182l0.034,0.109c0.156,0.415 0.549,0.653 0.873,0.926c0.134,0.12 0.336,0.107 0.459,-0.029c0.114,-0.134 0.102,-0.342 -0.032,-0.457c-0.192,-0.175 -0.394,-0.34 -0.588,-0.512l-0.11,-0.207l-0.007,0.194l0.034,-0.098c0.24,-0.505 -0.037,-1.237 -0.611,-1.297c-0.052,-0.008 -0.137,0.092 -0.233,-0.071c-0.074,-0.117 -0.096,-0.258 -0.132,-0.396c-0.001,-0.019 -0.022,-0.033 -0.039,-0.033c-0.018,0.004 -0.033,0.021 -0.033,0.043Z"
        style="fill:#93560e;fill-rule:nonzero;"/><path
        d="M32.318,83.747c-0.046,-0.012 -0.092,-0.024 -0.136,-0.035l0.014,-0.081c-0.033,0 -0.069,0.016 -0.097,0.037l-0.101,0.102c-0.446,0.515 -0.004,1.101 0.22,1.593c0.015,0.037 -0.09,0.159 -0.227,0.251c-0.368,0.238 -0.395,0.818 -0.076,1.111c0.223,0.211 0.573,0.417 0.444,0.729c-0.16,0.377 -0.585,0.625 -0.56,1.082c0.018,0.318 0.252,0.543 0.404,0.803c0.257,0.429 -0.277,0.766 -0.386,1.199c-0.086,0.35 0.064,0.751 0.414,0.926c0.199,0.452 -0.384,0.713 -0.478,1.121l-0.029,0.049c-0.03,0.053 -0.044,0.119 -0.042,0.181l0.016,0.137c0.014,0.146 0.094,0.253 0.173,0.363c0.127,0.186 0.401,0.296 0.374,0.519c-0.046,0.394 -0.337,0.677 -0.681,0.882c-0.146,0.095 -0.185,0.291 -0.091,0.429c0.098,0.144 0.287,0.186 0.435,0.088c0.577,-0.25 0.986,-0.763 1.023,-1.399c0.019,-0.372 -0.228,-0.692 -0.511,-0.913l-0.061,-0.153l-0.041,0.188l0.068,-0.18c0.192,-0.373 0.512,-0.693 0.508,-1.133c-0.009,-0.388 -0.241,-0.707 -0.457,-1.003c0.274,-0.407 0.461,-0.867 0.43,-1.377c-0.026,-0.407 -0.476,-0.605 -0.473,-0.98c0.004,-0.265 0.296,-0.446 0.377,-0.719c0.157,-0.536 -0.212,-0.993 -0.291,-1.495c0.173,-0.268 0.332,-0.59 0.192,-0.937c-0.15,-0.373 -0.582,-0.636 -0.424,-1.12l0.05,-0.104l-0.102,0.033l0.041,-0.01c0.03,-0.017 0.061,-0.036 0.09,-0.051c0.051,-0.047 0.051,-0.13 0.003,-0.178c-0.044,-0.051 -0.127,-0.055 -0.178,-0.008l0.166,0.053Z"
        style="fill:#93560e;fill-rule:nonzero;"/><path
        d="M36.177,83.452c-0.152,-0.043 -0.305,0.025 -0.405,0.133c-0.501,0.544 -0.24,1.232 0.16,1.784c0.038,0.054 0.028,0.193 -0.018,0.255c-0.367,0.483 -0.575,1.012 -0.364,1.592c0.105,0.288 0.353,0.472 0.507,0.74c0.044,0.075 0.019,0.191 -0.048,0.256c-0.57,0.536 -0.673,1.459 -0.024,1.958c0.11,0.276 0.053,0.569 -0.202,0.719l-0.078,0.096c-0.041,0.047 -0.064,0.106 -0.075,0.162l-0.018,0.129c-0.082,0.504 0.186,0.912 0.458,1.334c0.047,0.068 0.047,0.217 -0.006,0.263c-0.404,0.388 -0.805,0.838 -0.656,1.421c0.013,0.201 0.18,0.347 0.38,0.338c0.197,-0.016 0.35,-0.184 0.337,-0.381c-0.004,-0.114 -0.055,-0.248 -0.018,-0.329c0.175,-0.374 0.593,-0.588 0.669,-1.034c0.082,-0.461 -0.177,-0.782 -0.434,-1.145c-0.069,-0.1 -0.053,-0.235 -0.047,-0.358l0.012,-0.13l-0.073,0.168l0.055,-0.084c0.411,-0.289 0.503,-0.809 0.371,-1.279c-0.087,-0.305 -0.371,-0.474 -0.454,-0.768c-0.127,-0.484 0.203,-0.849 0.327,-1.294c0.024,-0.084 0.02,-0.175 -0.008,-0.261c-0.112,-0.369 -0.29,-0.721 -0.23,-1.106c0.058,-0.353 0.341,-0.626 0.398,-0.999c0.079,-0.552 -0.31,-0.905 -0.594,-1.334c-0.17,-0.257 -0.068,-0.544 0.107,-0.774c0.022,-0.01 0.029,-0.034 0.018,-0.049c-0.006,-0.027 -0.03,-0.032 -0.047,-0.023Z"
        style="fill:#93560e;fill-rule:nonzero;"/><path
        d="M39.887,82.911c-0.154,0 -0.303,0.025 -0.419,0.186c-0.553,0.738 -0.04,1.594 0.316,2.272c-0.104,0.11 -0.117,0.278 -0.214,0.371c-0.594,0.577 -0.319,1.615 0.182,2.135l0.027,-0.03l0,-0.008l0.011,0.029c0.071,0.092 0.157,0.184 0.105,0.332c-0.138,0.418 -0.499,0.723 -0.511,1.176c-0.01,0.328 0.16,0.594 0.317,0.885c0.096,0.183 0.25,0.44 0.099,0.584c-0.688,0.642 -0.206,1.594 0.215,2.19c0.018,0.396 -0.118,0.788 -0.389,1.077c-0.106,0.074 -0.127,0.217 -0.053,0.319c0.071,0.103 0.211,0.127 0.317,0.055c0.221,-0.068 0.427,-0.172 0.579,-0.364c0.445,-0.553 0.395,-1.379 -0.084,-1.91c-0.393,-0.436 0.014,-0.877 0.057,-1.342c0.038,-0.43 -0.211,-0.83 -0.478,-1.209c-0.128,-0.182 -0.152,-0.4 -0.069,-0.611c0.179,-0.444 0.545,-0.868 0.431,-1.383l0.027,-0.033c-0.036,-0.084 -0.098,-0.149 -0.185,-0.18l0.009,-0.059c-0.058,-0.296 -0.272,-0.607 -0.094,-0.908c-0.038,0.034 -0.077,0.067 -0.113,0.102c0.516,-0.342 0.846,-1.041 0.598,-1.639c-0.262,-0.631 -1.1,-1.216 -0.635,-1.964c0.018,-0.016 0.025,-0.042 0.014,-0.058c-0.014,-0.019 -0.042,-0.029 -0.06,-0.015Z"
        style="fill:#93560e;fill-rule:nonzero;"/><path
        d="M44.249,84.056c-0.397,-0.022 -0.535,0.429 -0.564,0.748c-0.035,0.353 0.147,0.644 0.358,0.936c0.057,0.077 0.09,0.188 0.065,0.265c-0.105,0.358 -0.469,0.593 -0.505,0.971c-0.049,0.523 0.312,0.97 0.68,1.307l0.084,0.055l-0.151,-0.187l0.011,0.029c0.035,0.459 -0.477,0.711 -0.606,1.132c-0.161,0.518 0.231,0.913 0.496,1.334c0.026,0.035 0.031,0.097 0.012,0.124c-0.267,0.344 -0.535,0.678 -0.493,1.125c0.043,0.526 0.478,0.832 0.722,1.255c-0.032,0.536 -0.174,1.051 -0.691,1.334c-0.046,0.036 -0.057,0.103 -0.024,0.148c0.029,0.047 0.096,0.062 0.147,0.027c0.327,-0.201 0.704,-0.332 0.951,-0.648c0.299,-0.383 0.485,-0.901 0.209,-1.356c-0.17,-0.285 -0.412,-0.478 -0.587,-0.758c-0.047,-0.073 -0.061,-0.206 -0.013,-0.275c0.193,-0.283 0.377,-0.544 0.432,-0.879c0.064,-0.413 -0.28,-0.664 -0.487,-0.994c-0.056,-0.084 -0.098,-0.182 -0.039,-0.262c0.344,-0.471 0.777,-0.96 0.625,-1.556l0.022,-0.024c-0.027,-0.08 -0.081,-0.143 -0.152,-0.188l-0.018,-0.044c-0.124,-0.167 -0.079,-0.424 -0.377,-0.489c0.317,-0.392 0.735,-0.823 0.625,-1.381c-0.084,-0.412 -0.342,-0.691 -0.629,-0.978c-0.195,-0.198 -0.081,-0.463 -0.026,-0.705c0.018,-0.019 0.018,-0.055 -0.004,-0.072c-0.02,-0.02 -0.051,-0.02 -0.073,0.006Z"
        style="fill:#93560e;fill-rule:nonzero;"/><path
        d="M26.874,96.35c0,0 2.986,-0.212 4.67,-0.419c1.847,-0.225 5.433,-0.018 8.611,-0.135c3.452,-0.133 7.943,-0.541 7.943,-0.541c0,0 0.387,-3.37 0.027,-5.53c-0.36,-2.161 -0.12,-6.839 -0.12,-6.839c0,0 0.718,2.823 0.841,4.557c0.12,1.742 0.298,4.021 0.419,5.099c0.12,1.079 0.061,1.02 0.24,2.16c0.18,1.141 0.211,2.65 0.211,2.65c0,0 -1.991,0.696 -3.382,0.611c-1.388,-0.083 -4.865,-0.322 -6.484,-0.025c-1.619,0.304 -2.76,0.483 -4.977,0.362c-2.22,-0.121 -4.379,-0.058 -4.74,0.239c-0.359,0.3 -1.196,-0.839 -1.196,-0.839c0,0 3.236,-0.479 5.096,-0.358c1.859,0.117 5.989,-0.228 7.187,-0.348c1.199,-0.122 3.295,0.263 4.327,0.168c2.472,-0.234 2.817,-0.843 2.817,-0.843c0,0 -1.966,-0.111 -4.546,0.01c-2.577,0.117 -4.682,0.264 -6.662,0.264c-1.979,0 -5.063,0.013 -6.263,0.135c-1.2,0.118 -2.932,0.334 -2.932,0.334l-1.087,-0.712Z"
        style="fill:#93560e;fill-rule:nonzero;"/><path
        d="M36.177,98.179c0,0 0.185,0.888 0.348,1.746c0.34,1.809 2.449,3.405 2.449,3.405l1.124,0.365l-0.315,-0.811c0,0 -1.937,-1.64 -2.232,-2.862c-0.152,-0.637 -0.026,-1.843 -0.026,-1.843l-1.348,0Z"
        style="fill:#93560e;fill-rule:nonzero;"/><path
        d="M46.093,97.641c0,0 0.112,0.962 0.454,2.333c0.36,1.438 2.643,3.296 2.445,2.981c0.315,0.497 1.009,0.825 1.009,0.825l0.656,-0.061l-0.264,-0.744c0,0 -2.228,-1.844 -2.623,-2.758c-0.899,-2.07 -0.19,-2.07 -0.486,-2.623c-0.188,-0.357 -1.191,0.047 -1.191,0.047Z"
        style="fill:#93560e;fill-rule:nonzero;"/><path
        d="M20.493,67.508l0.137,0.391c0,0 3.178,-0.722 5.126,-1.052c1.949,-0.333 2.728,-0.271 5.907,-0.933c3.179,-0.659 7.258,-1.02 7.258,-1.02c0,0 1.618,3.21 2.31,4.771c0.687,1.561 2.697,5.219 2.697,5.219c0,0 -0.421,-2.702 -0.991,-3.573c-0.57,-0.867 -1.798,-3.326 -2.218,-4.343c-0.418,-1.023 -1.3,-3.423 -1.3,-3.423c0,0 -2.37,0.641 -2.536,0.661c-0.168,0.022 -0.212,-0.086 -0.212,-0.086c0,0 0.062,-1.292 -0.118,-1.862c-0.182,-0.567 -2.46,-4.169 -2.46,-4.169l-0.87,-0.566l0.361,1.286c0,0 1.407,1.98 1.738,2.94c0.329,0.961 0.329,2.64 0.329,2.64l-8.874,1.618c0,0 -0.659,-2.1 -1.493,-3.613c-0.267,-0.489 -1.952,-1.275 -2.137,-1.514c-0.178,-0.241 -0.48,-0.662 -0.48,-0.662l-0.477,-0.33c0,0 -0.341,1.021 0,1.474c0.66,0.867 1.558,0.778 2.126,1.616c1.029,1.517 1.232,3.179 1.232,3.179l-4.47,0.988l-0.585,0.363Z"
        style="fill:#93560e;fill-rule:nonzero;"/><path
        d="M38.649,65.896l0.24,-0.42c0,0 -1.846,0.227 -2.607,0.274c-0.766,0.04 -3.72,0.598 -5.246,0.957c-1.529,0.36 -4.315,0.496 -5.982,0.81c-1.665,0.314 -4.655,1.193 -4.655,1.193c0,0 1.925,3.836 2.51,5.721c0.584,1.889 0.855,4.976 1.844,6.794c1.124,2.069 3.147,2.382 3.147,2.382c0,0 1.824,-0.832 4.116,-1.01c2.293,-0.18 4.454,-1.037 6.567,-1.217c2.112,-0.178 3.823,-0.853 3.823,-0.853c0,0 -1.011,-0.832 -2.405,-0.517c-1.396,0.314 -4.891,1.313 -5.692,1.462c-0.965,0.18 -2.945,0.382 -3.845,0.65c-0.68,0.207 -2.181,0.496 -2.181,0.496c0,0 -1.664,-0.338 -2.631,-2.855c-0.889,-2.315 -0.921,-3.215 -2.022,-5.623c-0.847,-1.849 -2.197,-5.116 -2.197,-5.116c0,0 1.776,-0.427 2.947,-0.701c1.169,-0.267 1.394,-0.038 4.586,-0.717c3.193,-0.674 6.205,-1.229 7.674,-1.44c0.55,-0.079 1.936,-0.241 2.009,-0.27Z"
        style="fill:#93560e;fill-rule:nonzero;"/><path
        d="M28.274,83.368c0,0 -0.234,1.918 -0.177,3.178c0.118,2.699 1.257,4.378 0.959,6.178c-0.302,1.796 -1.29,3.658 -1.29,3.658l-0.629,-0.362c0,0 0.899,-2.458 0.78,-3.836c-0.12,-1.382 -0.78,-4.02 -0.723,-5.459c0.062,-1.439 0.423,-3.238 0.423,-3.238l0.657,-0.119Z"
        style="fill:#93560e;fill-rule:nonzero;"/><path
        d="M62.713,42.723c-0.329,-0.837 -1.59,-2.692 -1.818,-3.273c-0.198,-0.499 0.458,-1.207 1.099,-1c0.584,0.189 0.692,1.345 0.692,1.345c0,0 0.666,-0.856 1.611,-0.327c0.635,0.354 0.496,0.947 0.166,1.3c-0.405,0.435 -1.401,0.122 -1.401,0.122c0,0 -0.751,1.157 0.905,2.309c1.226,0.851 1.924,-0.027 1.924,-0.027c0,0 0.076,0.85 1.001,1.099c0.438,0.119 1.482,0.759 2.397,-0.975c0.208,-0.39 0.305,-1.072 0.17,-1.099c-0.137,-0.029 -0.295,-0.009 -0.513,-0.009c-0.436,0 -0.789,-0.336 -0.789,-0.748c0,-0.413 0.294,-0.808 0.731,-0.808c0.22,0 0.418,0.086 0.562,0.221l0.005,-0.026c0,0 0.46,0.608 1.043,-0.053c0.228,-0.26 0.005,-0.904 0.005,-0.904l0.003,0c-0.029,-0.074 -0.047,-0.153 -0.047,-0.235c0,-0.358 0.308,-0.65 0.688,-0.65c0.381,0 0.688,0.292 0.688,0.65c0,0.282 -0.191,0.517 -0.453,0.609c-0.117,0.114 -0.329,0.354 -0.379,0.633c-0.117,0.681 0.895,0.722 0.895,0.722l-0.031,0.049c0.013,0 0.028,-0.003 0.041,-0.003c0.435,0 0.789,0.331 0.789,0.747c0,0.41 -0.357,0.786 -0.789,0.746c-0.535,-0.049 -0.833,-0.591 -1.127,-0.536c0,0 -1.621,2.073 0.505,3.009c1.219,0.537 2.067,-0.032 2.067,-0.032c0,0 0.517,0.917 1.544,0.955c1.52,0.052 2.284,-1.591 2.284,-1.591c0,0 -1.033,-0.179 -1.153,-0.707c-0.098,-0.431 0.097,-0.978 0.834,-0.991c1.105,-0.022 1.386,1.003 1.386,1.003c0,0 0.3,-0.597 0.894,-0.691c0.61,-0.098 1.085,0.77 0.648,1.076c-0.39,0.272 -2.445,1.418 -3.468,2.101c-1.198,0.797 -1.372,0.88 -1.879,1.315c-0.284,0.24 -0.487,0.554 -0.643,0.658l-0.631,-0.239c0,0 0.03,0 -1.139,-0.481c-1.168,-0.481 -1.32,-0.57 -1.32,-0.57c0,0 -0.619,-0.3 -1.967,-0.782c-1.348,-0.48 -2.395,-0.831 -2.395,-0.831c0,0 0.165,0.145 -1.034,-0.245c-1.201,-0.391 -1.109,-0.359 -1.109,-0.359l-0.668,-0.164c-0.018,-0.039 -0.032,-0.066 -0.053,-0.107c0,0 -0.341,-1.107 -0.771,-2.206Zm9.679,-1.784c-0.157,-0.052 -0.323,-0.082 -0.497,-0.088m0,0c0.416,-0.251 0.695,-0.699 0.695,-1.216c0,-0.788 -0.647,-1.428 -1.443,-1.428c-0.797,0 -1.443,0.64 -1.443,1.428c0,0.136 0.026,0.269 0.064,0.396c-0.27,-0.185 -0.831,-0.251 -1.406,-0.073c-0.576,0.18 -1.149,0.577 -1.149,1.485c0,0.91 0.438,1.593 1.357,1.593c0.093,0 -0.092,0.013 0,0c-0.06,0.069 0.015,-0.053 0,0c-0.11,0.351 -0.598,0.896 -1.379,0.68c-1.165,-0.327 -1.011,-1.431 -1.011,-1.431c0,0 -1.088,0.788 -1.83,0.338c-0.883,-0.539 -0.394,-0.886 -0.394,-0.886c1.134,0.13 1.999,-1.149 1.637,-2.08c-0.351,-0.905 -1.486,-1.401 -2.336,-0.984c0,0 0.161,-1.052 -1.541,-1.274c-1.218,-0.157 -2.021,1.452 -1.672,2.201c0.179,0.383 0.299,0.474 1.4,2.348c1.099,1.874 1.425,2.968 1.425,2.968c0.019,0.067 0.046,0.203 0.046,0.373c0,0.24 0.059,0.389 0.059,0.389c0,0 1.59,0.164 5.218,1.424c3.626,1.262 6.087,2.624 6.087,2.624c0,0 0.029,-0.121 0.061,-0.331c0.004,-0.047 0.015,-0.097 0.024,-0.144c0.054,-0.245 0.794,-1.003 1.566,-1.488c2.394,-1.518 3.357,-1.879 4.559,-2.556c0.797,-0.448 0.5,-1.923 -0.273,-2.298c-1.52,-0.741 -2.028,0.142 -2.028,0.142c-0.517,-0.711 -1.767,-0.798 -2.552,-0.214c-0.812,0.601 -0.739,2.017 0.317,2.407c0,0 0.024,0.323 -0.955,0.558c-0.901,0.215 -1.174,-1.12 -1.174,-1.12c0,0 -0.698,0.788 -2.109,0.432c-0.435,-0.113 -0.853,-0.591 -0.693,-1.431c0.288,0.486 0.622,0.414 1.133,0.38c0.809,-0.053 1.422,-0.597 1.422,-1.509c0,-0.722 -0.534,-1.395 -1.185,-1.615"
        style="fill:#93560e;fill-rule:nonzero;"/><path
        d="M64.674,47.854c0.189,0.049 0.972,0.638 1.333,1.03c0.398,0.435 0.767,1.135 0.767,1.135c0,0 -0.875,-0.376 -2.016,0.007c-1.041,0.351 -1.448,0.028 -1.482,-0.373c-0.034,-0.398 0.3,-0.769 0.3,-0.769c0,0 -0.308,0.491 0.282,0.643c0.578,0.152 0.875,-0.062 0.875,-0.062c0,0 -0.623,-0.077 -0.673,-0.427c-0.05,-0.346 0.191,-0.548 0.423,-0.646c0,0 -0.244,-0.171 -0.975,0.037c-0.557,0.159 -0.573,0.641 -0.673,0.773c-0.101,0.134 -0.146,0.049 -0.101,-0.364c0.075,-0.698 -0.124,-1.534 1.94,-0.984Z"
        style="fill:#93560e;fill-rule:nonzero;"/><path
        d="M69.955,36.193c0.52,0 0.939,-0.424 0.939,-0.946c0,-0.525 -0.419,-0.949 -0.939,-0.949c-0.516,0 -0.936,0.424 -0.936,0.949c0,0.522 0.42,0.946 0.936,0.946Z"
        style="fill:#93560e;fill-rule:nonzero;"/><path
        d="M64.775,37.304c0.367,0 0.661,-0.275 0.661,-0.611c0,-0.339 -0.294,-0.612 -0.661,-0.612c-0.364,0 -0.663,0.273 -0.663,0.612c0,0.336 0.299,0.611 0.663,0.611Zm-1.429,-0.611c0,-0.781 0.638,-1.407 1.429,-1.407c0.789,0 1.43,0.626 1.43,1.407c0,0.776 -0.641,1.407 -1.43,1.407c-0.791,0 -1.429,-0.631 -1.429,-1.407Z"
        style="fill:#93560e;fill-rule:nonzero;"/><path
        d="M67.568,36.15c0.264,0 0.479,-0.201 0.479,-0.454c0,-0.255 -0.215,-0.458 -0.479,-0.458c-0.267,0 -0.484,0.203 -0.484,0.458c0,0.253 0.217,0.454 0.484,0.454Zm-1.178,-0.466c0,-0.633 0.529,-1.151 1.181,-1.151c0.652,0 1.184,0.518 1.184,1.151c0,0.637 -0.532,1.15 -1.184,1.15c-0.652,0 -1.181,-0.513 -1.181,-1.15Z"
        style="fill:#93560e;fill-rule:nonzero;"/><path
        d="M71.762,30.463c0,0 -0.233,0.235 -0.401,0.668c-0.166,0.432 -0.166,1.034 -0.166,1.034c0,0 1.719,-0.27 1.799,0.131c0.079,0.405 -0.199,0.679 -0.199,0.679l1.025,0.356c0,0 -0.058,-0.699 0.172,-0.766c0.237,-0.067 1.434,0.999 1.434,0.999c0,0 0.3,-0.066 0.6,-0.699c0.263,-0.556 -0.066,-1 -0.066,-1c0,0 -1.7,0.332 -1.7,-0.133c0,-0.466 1.199,-1.598 1.199,-1.598c0,0 -0.335,-0.484 -0.916,-0.643c-0.732,-0.2 -0.881,-0.06 -0.881,-0.06c0,0 -0.067,1.966 -0.334,2c-0.268,0.032 -1.566,-0.968 -1.566,-0.968Z"
        style="fill:#93560e;fill-rule:nonzero;"/><path
        d="M63.856,38.618c0,0 1.12,-1.012 3.201,-1.805c2.081,-0.793 3.278,-0.769 3.949,-0.957c0.67,-0.188 1.271,-0.309 1.271,-0.309c0,0 0.581,1.041 0.181,1.17c-0.405,0.125 -1.032,-0.121 -2.202,-0.044c-1.166,0.08 -2.211,0.588 -3.486,1.133c-1.276,0.546 -1.794,1.498 -1.794,1.498l-1.12,-0.686Z"
        style="fill:#93560e;fill-rule:nonzero;"/><path
        d="M74.297,37.442c-0.445,-0.264 -0.588,-0.846 -0.321,-1.292c0.267,-0.454 0.845,-0.603 1.288,-0.338c0.446,0.263 0.59,0.841 0.322,1.29c-0.267,0.451 -0.843,0.602 -1.289,0.34Z"
        style="fill:#93560e;fill-rule:nonzero;"/><path
        d="M78.006,43.398c0,0 -0.489,-2.068 -1.805,-3.863c-1.32,-1.795 -2.339,-2.427 -2.8,-2.949c-0.462,-0.517 -0.901,-0.947 -0.901,-0.947c0,0 -1.052,0.561 -0.784,0.885c0.268,0.325 0.931,0.458 1.869,1.158c0.941,0.699 1.54,1.692 2.316,2.845c0.777,1.151 0.79,2.554 0.79,2.554l1.315,0.317Z"
        style="fill:#93560e;fill-rule:nonzero;"/><path
        d="M78.293,41.418c0.367,0 0.663,-0.274 0.663,-0.61c0,-0.339 -0.296,-0.611 -0.663,-0.611c-0.366,0 -0.662,0.272 -0.662,0.611c0,0.336 0.296,0.61 0.662,0.61Zm-0.7,0.601c-0.679,-0.403 -0.91,-1.27 -0.51,-1.942c0.396,-0.664 1.266,-0.884 1.946,-0.48c0.678,0.404 0.906,1.271 0.511,1.939c-0.397,0.671 -1.268,0.886 -1.947,0.483Z"
        style="fill:#93560e;fill-rule:nonzero;"/><path
        d="M72.795,35.308c0.431,0 0.785,-0.349 0.785,-0.779c0,-0.431 -0.354,-0.778 -0.785,-0.778c-0.432,0 -0.786,0.347 -0.786,0.778c0,0.43 0.354,0.779 0.786,0.779Zm-1.555,-0.779c0,-0.857 0.693,-1.554 1.555,-1.554c0.857,0 1.552,0.697 1.552,1.554c0,0.86 -0.695,1.557 -1.552,1.557c-0.862,0 -1.555,-0.697 -1.555,-1.557Z"
        style="fill:#93560e;fill-rule:nonzero;"/><path
        d="M76.62,38.783c0.267,0 0.483,-0.203 0.483,-0.457c0,-0.253 -0.216,-0.46 -0.483,-0.46c-0.265,0 -0.481,0.207 -0.481,0.46c0,0.254 0.216,0.457 0.481,0.457Zm-0.587,0.538c-0.561,-0.334 -0.754,-1.047 -0.427,-1.593c0.323,-0.548 1.041,-0.719 1.602,-0.388c0.562,0.335 0.752,1.048 0.427,1.595c-0.322,0.544 -1.042,0.718 -1.602,0.386Z"
        style="fill:#93560e;fill-rule:nonzero;"/><path
        d="M69.085,46.196c0.324,0 0.511,-0.351 0.511,-0.635c0,-0.287 -0.263,-0.52 -0.59,-0.52c-0.323,0 -0.589,0.233 -0.589,0.52c0,0.284 0.343,0.635 0.668,0.635Z"
        style="fill:#93560e;fill-rule:nonzero;"/></g></svg>